<?xml version="1.0" standalone="no"?><!DOCTYPE svg PUBLIC "-//W3C//DTD SVG 1.1//EN" "http://www.w3.org/Graphics/SVG/1.1/DTD/svg11.dtd"><svg height="1024" node-id="1" sillyvg="true" template-height="1024" template-width="1024" version="1.1" viewBox="0 0 1024 1024" width="1024" xmlns="http://www.w3.org/2000/svg" xmlns:xlink="http://www.w3.org/1999/xlink"><defs node-id="77"><linearGradient gradientUnits="objectBoundingBox" id="linear-gradient" node-id="3" spreadMethod="pad" x1="0.012" x2="1" y1="0.407" y2="0.396"><stop offset="0" stop-color="#65a1fb"></stop><stop offset="1" stop-color="#1663ea"></stop></linearGradient><linearGradient gradientUnits="objectBoundingBox" id="linear-gradient-2" node-id="6" spreadMethod="pad" x1="0" x2="1" y1="0.392" y2="0.376"><stop offset="0" stop-color="#c1e4ff"></stop><stop offset="0.467" stop-color="#cee5fe"></stop><stop offset="0.539" stop-color="#abc8fe"></stop><stop offset="1" stop-color="#9dc4f9"></stop></linearGradient><linearGradient gradientUnits="objectBoundingBox" id="linear-gradient-3" node-id="11" spreadMethod="pad" x1="0.01" x2="1" y1="0.535" y2="0.5"><stop offset="0" stop-color="#c3e6ff"></stop><stop offset="1" stop-color="#b1d2ff"></stop></linearGradient><linearGradient gradientUnits="objectBoundingBox" id="linear-gradient-4" node-id="14" spreadMethod="pad" x1="0" x2="0.992" y1="0.06" y2="0.174"><stop offset="0" stop-color="#27dfff"></stop><stop offset="1" stop-color="#1969ff"></stop></linearGradient><linearGradient gradientUnits="objectBoundingBox" id="linear-gradient-5" node-id="17" spreadMethod="pad" x1="0.474" x2="0.5" y1="0.08" y2="0.926"><stop offset="0" stop-color="#5fa3fd"></stop><stop offset="1" stop-color="#b8e0ff"></stop></linearGradient><linearGradient gradientUnits="objectBoundingBox" id="linear-gradient-6" node-id="20" spreadMethod="pad" x1="0" x2="0.954" y1="0.023" y2="0.2"><stop offset="0" stop-color="#65a5fc"></stop><stop offset="1" stop-color="#cee9ff"></stop></linearGradient><linearGradient gradientUnits="objectBoundingBox" id="linear-gradient-7" node-id="23" spreadMethod="pad" x1="0.5" x2="0.5" y1="0" y2="1"><stop offset="0" stop-color="#63a5ff"></stop><stop offset="1" stop-color="#b3e2ff"></stop></linearGradient><linearGradient gradientUnits="objectBoundingBox" id="linear-gradient-8" node-id="26" spreadMethod="pad" x1="0.015" x2="1.026" y1="1" y2="0.5"><stop offset="0" stop-color="#53f1db"></stop><stop offset="1" stop-color="#06e1ca"></stop></linearGradient><linearGradient gradientUnits="objectBoundingBox" id="linear-gradient-9" node-id="29" spreadMethod="pad" x1="0" x2="1" y1="1" y2="0.115"><stop offset="0" stop-color="#37e5cd"></stop><stop offset="1" stop-color="#12e2be"></stop></linearGradient><linearGradient gradientUnits="objectBoundingBox" id="linear-gradient-10" node-id="32" spreadMethod="pad" x1="0" x2="0.713" y1="1" y2="0.095"><stop offset="0" stop-color="#79f7e5"></stop><stop offset="1" stop-color="#08eec4"></stop></linearGradient><linearGradient gradientUnits="objectBoundingBox" id="linear-gradient-11" node-id="35" spreadMethod="pad" x1="0.045" x2="0.818" y1="0.892" y2="0.235"><stop offset="0" stop-color="#baffef"></stop><stop offset="1" stop-color="#33f2c6"></stop></linearGradient><linearGradient gradientUnits="objectBoundingBox" id="linear-gradient-12" node-id="38" spreadMethod="pad" x1="0.084" x2="0.965" y1="0.061" y2="0.631"><stop offset="0" stop-color="#71d2ff"></stop><stop offset="1" stop-color="#116ce8"></stop></linearGradient><linearGradient gradientUnits="objectBoundingBox" id="linear-gradient-13" node-id="41" spreadMethod="pad" x1="0.5" x2="0.5" y1="0" y2="1"><stop offset="0" stop-color="#ffffff"></stop><stop offset="1" stop-color="#a2c6f4" stop-opacity="0.439"></stop></linearGradient><linearGradient gradientUnits="objectBoundingBox" id="linear-gradient-14" node-id="44" spreadMethod="pad" x1="0" x2="0.965" y1="0.225" y2="0.783"><stop offset="0" stop-color="#41a9ff"></stop><stop offset="1" stop-color="#2480ed"></stop></linearGradient><clipPath id="clip-高速下载" node-id="47"><path d="M 0.00 0.00 L 1024.00 0.00 L 1024.00 1024.00 L 0.00 1024.00 Z" fill="#000000" fill-rule="nonzero" node-id="168" stroke="none" target-height="1024" target-width="1024" target-x="0" target-y="0"></path></clipPath></defs><g clip-path="url(#clip-高速下载)" id="高速下载" node-id="49"><path d="M 0.00 0.00 L 1024.00 0.00 L 1024.00 1024.00 L 0.00 1024.00 Z" fill="#ffffff" fill-rule="nonzero" node-id="173" stroke="none" target-height="1024" target-width="1024" target-x="0" target-y="0"></path><path d="M 98.90 704.20 L 96.30 706.00 L 93.40 708.60 L 90.70 711.70 L 88.10 715.40 L 85.50 720.80 L 84.50 723.70 L 84.00 726.70 L 83.90 729.70 L 84.20 732.80 L 85.10 735.70 L 86.60 738.70 L 88.70 741.80 L 91.40 744.50 L 94.90 747.20 L 99.50 750.00 L 136.20 767.80 L 247.20 820.50 L 463.20 922.30 L 469.60 924.30 L 482.80 927.10 L 500.80 929.80 L 510.90 930.60 L 521.70 931.10 L 529.00 931.00 L 543.70 929.90 L 551.00 928.70 L 558.10 927.10 L 564.90 925.00 L 580.60 918.60 L 605.90 907.10 L 638.80 891.60 L 719.30 852.80 L 845.00 791.00 L 935.00 746.20 L 938.90 743.20 L 941.00 740.90 L 943.00 738.00 L 944.80 734.80 L 946.10 731.20 L 946.70 728.60 L 946.70 723.20 L 946.20 720.50 L 945.10 717.60 L 943.40 714.70 L 941.40 711.90 L 938.60 709.10 L 935.00 706.00 L 931.70 703.90 L 902.80 688.60 L 872.80 673.50 L 793.90 634.80 L 655.60 568.10 L 486.20 487.30 L 98.90 704.20 Z" fill="#f1f4ff" fill-rule="nonzero" group-id="1" id="路径_1687" node-id="51" stroke="#ffffff" stroke-linecap="butt" stroke-width="3" target-height="443.8" target-width="862.8" target-x="83.9" target-y="487.3"></path><path d="M 102.10 668.30 L 101.60 685.60 L 101.90 694.50 L 103.20 698.20 L 104.70 700.40 L 106.50 702.20 L 110.50 705.00 L 163.40 730.50 L 274.20 782.50 L 393.30 837.80 L 471.40 873.40 L 479.70 876.80 L 483.00 877.70 L 494.00 879.30 L 508.40 880.50 L 524.70 880.80 L 541.00 879.70 L 553.50 877.50 L 561.90 874.90 L 595.70 859.20 L 703.00 808.10 L 861.00 732.00 L 915.10 705.50 L 917.10 704.00 L 921.40 698.90 L 924.90 692.20 L 926.30 688.40 L 928.60 678.00 L 929.20 672.30 L 929.40 665.70 L 929.20 657.80 L 928.80 656.50 L 927.60 655.00 L 925.20 653.20 L 921.10 651.10 L 915.80 648.80 L 899.20 643.40 L 884.30 639.50 L 865.50 635.10 L 845.40 630.90 L 798.00 621.90 L 744.20 612.70 L 656.10 599.00 L 595.80 590.30 L 480.60 574.60 L 387.00 562.50 L 324.30 554.80 Z" fill="url(#linear-gradient)" fill-rule="nonzero" group-id="2" id="路径_1688" node-id="52" stroke="none" target-height="326" target-width="827.80005" target-x="101.6" target-y="554.8"></path><path d="M 102.50 600.90 L 101.50 655.10 L 101.70 666.30 L 103.20 671.70 L 106.10 676.50 L 110.00 680.40 L 112.40 682.00 L 165.10 707.40 L 316.30 778.10 L 426.60 829.10 L 471.40 849.40 L 479.70 852.80 L 488.20 854.60 L 501.00 856.00 L 516.50 856.80 L 524.70 856.80 L 541.00 855.70 L 548.60 854.60 L 558.00 852.30 L 561.90 850.90 L 573.60 845.60 L 662.60 803.40 L 861.00 708.00 L 907.50 685.40 L 917.10 680.30 L 921.90 676.30 L 924.20 673.30 L 926.80 668.20 L 928.60 661.20 L 929.20 651.40 L 929.20 610.10 L 929.00 600.60 L 928.70 596.80 L 924.30 594.70 L 917.90 592.50 L 909.00 590.00 L 894.90 586.70 L 876.60 583.20 L 833.90 576.50 L 809.80 573.20 L 755.60 566.70 L 666.00 557.60 L 543.60 546.90 L 433.80 538.40 L 324.30 530.80 Z" fill="url(#linear-gradient-2)" fill-rule="nonzero" group-id="3" id="路径_1689" node-id="53" stroke="none" target-height="326" target-width="827.7" target-x="101.5" target-y="530.8"></path><path d="M 113.50 578.60 L 108.00 585.20 L 106.00 588.40 L 104.20 592.20 L 102.50 597.60 L 102.10 600.40 L 102.20 603.30 L 102.80 606.20 L 104.00 609.10 L 106.80 613.20 L 111.60 617.30 L 115.30 619.50 L 146.00 635.10 L 214.90 667.80 L 344.00 727.50 L 479.50 789.30 L 482.20 790.20 L 487.20 791.30 L 492.90 792.10 L 507.60 793.40 L 524.40 793.80 L 541.20 793.10 L 553.80 791.40 L 561.90 789.30 L 565.40 787.90 L 595.10 774.30 L 661.50 742.50 L 916.10 618.30 L 919.60 615.80 L 921.60 613.60 L 924.80 608.40 L 927.00 601.80 L 927.60 598.30 L 927.60 594.60 L 926.70 589.10 L 924.20 583.40 L 922.50 580.80 L 920.20 578.20 L 917.40 575.60 L 913.90 573.00 L 902.40 566.50 L 880.40 554.90 L 813.00 520.40 L 639.50 433.30 L 514.20 371.00 Z" fill="#ffffff" fill-rule="nonzero" group-id="4" id="路径_1690" node-id="54" stroke="none" target-height="422.8" target-width="825.5" target-x="102.1" target-y="371"></path><path d="M 128.40 589.10 L 125.50 591.00 L 123.80 592.50 L 122.50 594.30 L 121.60 596.50 L 121.40 598.00 L 121.60 599.70 L 122.30 601.70 L 123.50 603.50 L 125.40 605.60 L 128.40 608.00 L 131.30 609.70 L 159.50 623.70 L 265.30 672.70 L 482.60 770.70 L 485.50 771.70 L 490.30 772.80 L 495.60 773.60 L 509.00 774.80 L 516.50 775.00 L 531.60 774.80 L 545.90 773.40 L 552.40 772.20 L 557.70 770.70 L 560.90 769.40 L 589.00 756.70 L 617.70 743.20 L 690.60 708.50 L 893.40 610.40 L 899.70 606.80 L 904.40 603.20 L 906.30 601.00 L 908.00 597.90 L 908.20 594.50 L 907.60 592.70 L 906.50 590.70 L 905.00 588.90 L 902.70 586.80 L 899.40 584.50 L 868.00 567.90 L 803.30 534.90 L 677.50 471.60 L 514.20 389.90 Z" fill="#eff6ff" fill-rule="nonzero" group-id="5" id="路径_1691" node-id="55" stroke="none" target-height="385.1" target-width="786.8" target-x="121.4" target-y="389.9"></path><path d="M 795.00 578.00 L 794.70 584.40 L 793.80 590.80 L 792.30 597.00 L 790.30 603.20 L 787.70 609.40 L 784.60 615.30 L 781.00 621.10 L 776.80 626.80 L 772.10 632.60 L 766.70 638.20 L 761.20 643.50 L 748.70 653.70 L 733.90 663.70 L 724.30 669.30 L 713.90 674.70 L 702.80 679.90 L 690.90 684.90 L 678.90 689.40 L 666.40 693.60 L 653.20 697.50 L 639.30 701.10 L 625.40 704.20 L 611.10 707.00 L 596.20 709.40 L 580.70 711.40 L 565.40 712.90 L 549.70 714.10 L 533.50 714.80 L 517.00 715.00 L 500.50 714.80 L 484.30 714.10 L 468.60 712.90 L 453.30 711.40 L 437.80 709.40 L 422.90 707.00 L 408.60 704.20 L 394.70 701.10 L 380.80 697.50 L 367.60 693.60 L 355.10 689.40 L 343.10 684.90 L 331.20 679.90 L 320.10 674.70 L 309.70 669.30 L 300.10 663.70 L 285.30 653.70 L 272.80 643.50 L 267.30 638.20 L 261.90 632.60 L 257.20 626.80 L 253.00 621.10 L 249.40 615.30 L 246.30 609.40 L 243.70 603.20 L 241.70 597.00 L 240.20 590.80 L 239.30 584.40 L 239.00 578.00 L 239.30 571.60 L 240.20 565.20 L 241.70 559.00 L 243.70 552.80 L 246.30 546.60 L 249.40 540.70 L 253.00 534.90 L 257.20 529.20 L 261.90 523.40 L 267.30 517.80 L 278.80 507.40 L 285.30 502.30 L 300.10 492.30 L 309.70 486.70 L 320.10 481.30 L 331.20 476.10 L 343.10 471.10 L 355.10 466.60 L 367.60 462.40 L 380.80 458.50 L 394.70 454.90 L 408.60 451.80 L 422.90 449.00 L 437.80 446.60 L 453.30 444.60 L 468.60 443.10 L 484.30 441.90 L 500.50 441.20 L 517.00 441.00 L 533.50 441.20 L 549.70 441.90 L 565.40 443.10 L 580.70 444.60 L 596.20 446.60 L 611.10 449.00 L 625.40 451.80 L 639.30 454.90 L 653.20 458.50 L 666.40 462.40 L 678.90 466.60 L 690.90 471.10 L 702.80 476.10 L 713.90 481.30 L 724.30 486.70 L 733.90 492.30 L 748.70 502.30 L 761.20 512.50 L 766.70 517.80 L 772.10 523.40 L 776.80 529.20 L 781.00 534.90 L 784.60 540.70 L 787.70 546.60 L 790.30 552.80 L 792.30 559.00 L 793.80 565.20 L 794.70 571.60 L 795.00 578.00 Z" fill="url(#linear-gradient-3)" fill-rule="nonzero" group-id="6,16" id="椭圆_706" node-id="57" stroke="none" target-height="274" target-width="556" target-x="239" target-y="441"></path><path d="M 517.00 702.00 L 498.30 701.70 L 479.60 700.80 L 461.00 699.20 L 443.50 697.20 L 426.10 694.50 L 408.80 691.20 L 392.90 687.60 L 377.10 683.40 L 361.60 678.60 L 340.70 670.90 L 320.40 661.90 L 311.60 657.30 L 303.00 652.50 L 294.60 647.20 L 286.50 641.60 L 279.60 636.30 L 273.00 630.70 L 266.80 624.70 L 260.80 618.30 L 256.00 612.40 L 251.70 606.10 L 247.90 599.50 L 244.60 592.60 L 242.90 588.20 L 241.60 583.70 L 239.70 574.40 L 239.20 569.70 L 239.10 561.50 L 239.60 567.40 L 240.70 573.20 L 242.20 579.00 L 244.30 584.80 L 246.90 590.60 L 250.00 596.40 L 254.20 602.80 L 259.00 609.20 L 264.60 615.60 L 271.00 622.00 L 278.30 628.30 L 285.60 634.00 L 293.70 639.70 L 302.50 645.20 L 312.20 650.70 L 322.80 656.00 L 342.90 664.80 L 364.90 672.70 L 387.70 679.30 L 412.10 684.90 L 428.60 688.00 L 445.60 690.50 L 463.20 692.40 L 480.80 693.90 L 498.70 694.70 L 517.00 695.00 L 535.30 694.70 L 553.20 693.90 L 570.80 692.40 L 588.40 690.50 L 605.40 688.00 L 621.90 684.90 L 646.30 679.30 L 669.10 672.70 L 691.10 664.80 L 711.20 656.00 L 721.80 650.70 L 731.50 645.20 L 740.30 639.60 L 748.40 634.00 L 755.70 628.30 L 763.00 622.00 L 769.40 615.60 L 775.00 609.20 L 779.80 602.80 L 784.00 596.40 L 787.10 590.60 L 789.70 584.80 L 791.80 579.00 L 793.30 573.20 L 794.40 567.40 L 794.90 561.50 L 794.80 569.70 L 794.30 574.40 L 792.40 583.70 L 791.10 588.20 L 789.40 592.60 L 786.10 599.50 L 782.30 606.10 L 778.00 612.40 L 773.20 618.30 L 767.20 624.70 L 761.00 630.70 L 754.40 636.30 L 747.50 641.60 L 739.40 647.20 L 731.00 652.50 L 722.40 657.30 L 713.60 661.90 L 693.30 670.90 L 672.40 678.60 L 656.90 683.40 L 641.10 687.60 L 625.20 691.20 L 607.90 694.50 L 590.50 697.20 L 573.00 699.20 L 554.40 700.80 L 535.70 701.70 L 517.00 702.00 Z" fill="url(#linear-gradient-4)" fill-rule="nonzero" group-id="6,17" id="减去_8" node-id="58" stroke="none" target-height="140.5" target-width="555.80005" target-x="239.1" target-y="561.5"></path><path d="M 795.00 548.00 L 794.70 554.40 L 793.80 560.80 L 792.30 567.00 L 790.30 573.20 L 787.70 579.40 L 784.60 585.30 L 781.00 591.10 L 776.80 596.80 L 772.10 602.60 L 766.70 608.20 L 761.20 613.50 L 748.70 623.70 L 733.90 633.70 L 724.30 639.30 L 713.90 644.70 L 702.80 649.90 L 690.90 654.90 L 678.90 659.40 L 666.40 663.60 L 653.20 667.50 L 639.30 671.10 L 625.40 674.20 L 611.10 677.00 L 596.20 679.40 L 580.70 681.40 L 565.40 682.90 L 549.70 684.10 L 533.50 684.80 L 517.00 685.00 L 500.50 684.80 L 484.30 684.10 L 468.60 682.90 L 453.30 681.40 L 437.80 679.40 L 422.90 677.00 L 408.60 674.20 L 394.70 671.10 L 380.80 667.50 L 367.60 663.60 L 355.10 659.40 L 343.10 654.90 L 331.20 649.90 L 320.10 644.70 L 309.70 639.30 L 300.10 633.70 L 285.30 623.70 L 272.80 613.50 L 267.30 608.20 L 261.90 602.60 L 257.20 596.80 L 253.00 591.10 L 249.40 585.30 L 246.30 579.40 L 243.70 573.20 L 241.70 567.00 L 240.20 560.80 L 239.30 554.40 L 239.00 548.00 L 239.30 541.60 L 240.20 535.20 L 241.70 529.00 L 243.70 522.80 L 246.30 516.60 L 249.40 510.70 L 253.00 504.90 L 257.20 499.20 L 261.90 493.40 L 267.30 487.80 L 278.80 477.40 L 285.30 472.30 L 300.10 462.30 L 309.70 456.70 L 320.10 451.30 L 331.20 446.10 L 343.10 441.10 L 355.10 436.60 L 367.60 432.40 L 380.80 428.50 L 394.70 424.90 L 408.60 421.80 L 422.90 419.00 L 437.80 416.60 L 453.30 414.60 L 468.60 413.10 L 484.30 411.90 L 500.50 411.20 L 517.00 411.00 L 533.50 411.20 L 549.70 411.90 L 565.40 413.10 L 580.70 414.60 L 596.20 416.60 L 611.10 419.00 L 625.40 421.80 L 639.30 424.90 L 653.20 428.50 L 666.40 432.40 L 678.90 436.60 L 690.90 441.10 L 702.80 446.10 L 713.90 451.30 L 724.30 456.70 L 733.90 462.30 L 748.70 472.30 L 761.20 482.50 L 766.70 487.80 L 772.10 493.40 L 776.80 499.20 L 781.00 504.90 L 784.60 510.70 L 787.70 516.60 L 790.30 522.80 L 792.30 529.00 L 793.80 535.20 L 794.70 541.60 L 795.00 548.00 Z" fill="#ffffff" fill-rule="nonzero" group-id="6,18" id="椭圆_708" node-id="59" stroke="none" target-height="274" target-width="556" target-x="239" target-y="411"></path><path d="M 784.00 545.50 L 783.70 551.40 L 782.80 557.30 L 781.40 563.10 L 779.50 568.80 L 776.90 574.50 L 774.00 579.90 L 770.50 585.20 L 766.50 590.60 L 761.90 595.90 L 756.80 601.10 L 750.10 607.10 L 742.60 613.10 L 734.30 618.90 L 725.10 624.60 L 715.90 629.80 L 705.90 634.80 L 695.10 639.60 L 683.60 644.20 L 672.10 648.30 L 660.00 652.20 L 647.30 655.80 L 633.90 659.10 L 620.50 662.00 L 606.70 664.60 L 592.30 666.80 L 577.40 668.70 L 562.70 670.10 L 547.50 671.10 L 531.90 671.80 L 516.00 672.00 L 500.10 671.80 L 484.50 671.10 L 469.30 670.10 L 454.60 668.70 L 439.70 666.80 L 425.30 664.60 L 411.50 662.00 L 398.10 659.10 L 384.70 655.80 L 372.00 652.20 L 359.90 648.30 L 348.40 644.20 L 336.90 639.60 L 326.10 634.80 L 316.10 629.80 L 306.90 624.60 L 297.70 618.90 L 289.40 613.10 L 281.90 607.10 L 275.20 601.10 L 270.10 595.90 L 265.50 590.60 L 261.50 585.20 L 258.00 579.90 L 255.10 574.50 L 252.50 568.80 L 250.60 563.10 L 249.20 557.30 L 248.30 551.40 L 248.00 545.50 L 248.30 539.60 L 249.20 533.70 L 250.60 527.90 L 252.50 522.20 L 255.10 516.50 L 258.00 511.10 L 261.50 505.80 L 265.50 500.40 L 270.10 495.10 L 275.20 489.90 L 281.90 483.90 L 289.40 477.90 L 297.70 472.10 L 306.90 466.40 L 316.10 461.20 L 326.10 456.20 L 336.90 451.40 L 348.40 446.80 L 359.90 442.70 L 372.00 438.80 L 384.70 435.20 L 398.10 431.90 L 411.50 429.00 L 425.30 426.40 L 439.70 424.20 L 454.60 422.30 L 469.30 420.90 L 484.50 419.90 L 500.10 419.20 L 516.00 419.00 L 531.90 419.20 L 547.50 419.90 L 562.70 420.90 L 577.40 422.30 L 592.30 424.20 L 606.70 426.40 L 620.50 429.00 L 633.90 431.90 L 647.30 435.20 L 660.00 438.80 L 672.10 442.70 L 683.60 446.80 L 695.10 451.40 L 705.90 456.20 L 715.90 461.20 L 725.10 466.40 L 734.30 472.10 L 742.60 477.90 L 750.10 483.90 L 756.80 489.90 L 761.90 495.10 L 766.50 500.40 L 770.50 505.80 L 774.00 511.10 L 776.90 516.50 L 779.50 522.20 L 781.40 527.90 L 782.80 533.70 L 783.70 539.60 L 784.00 545.50 Z" fill="#eaf4fe" fill-rule="nonzero" group-id="6,19" id="椭圆_709" node-id="60" stroke="none" target-height="253" target-width="536" target-x="248" target-y="419"></path><path d="M 442.00 107.40 L 445.20 105.30 L 469.80 92.20 L 472.30 91.40 L 474.50 91.10 L 477.70 91.20 L 480.50 91.90 L 494.10 97.90 L 579.30 137.60 L 646.30 169.10 L 665.90 178.70 L 670.50 182.20 L 673.00 185.00 L 676.10 189.70 L 678.60 195.90 L 679.30 199.60 L 679.70 203.90 L 679.10 578.90 L 678.90 579.50 L 676.70 581.80 L 670.50 585.80 L 654.40 594.50 L 645.60 598.70 L 599.60 572.10 L 464.40 492.70 Z" fill="url(#linear-gradient-5)" fill-rule="nonzero" group-id="7" id="路径_1694" node-id="61" stroke="none" target-height="507.6" target-width="237.70001" target-x="442" target-y="91.1"></path><path d="M 436.40 118.80 L 436.70 116.20 L 438.40 111.40 L 441.00 108.20 L 442.80 107.00 L 444.90 106.20 L 447.50 105.70 L 450.10 105.80 L 453.40 106.50 L 457.40 108.00 L 576.30 163.30 L 618.30 183.10 L 637.90 192.70 L 642.50 196.20 L 645.00 199.00 L 648.10 203.70 L 649.50 206.80 L 650.60 209.90 L 651.30 213.60 L 651.70 217.90 L 651.70 228.70 L 650.60 589.00 L 650.20 592.00 L 648.80 595.50 L 647.50 597.00 L 645.70 598.10 L 644.30 598.60 L 640.50 598.60 L 635.80 597.30 L 623.40 591.20 L 583.50 572.80 L 436.40 506.70 Z" fill="url(#linear-gradient-6)" fill-rule="nonzero" group-id="8" id="路径_1696" node-id="62" stroke="none" target-height="492.89996" target-width="215.30002" target-x="436.4" target-y="105.7"></path><path d="M 436.40 126.80 L 436.70 124.20 L 437.50 121.30 L 439.40 117.70 L 440.80 116.20 L 442.50 115.00 L 444.50 114.20 L 447.00 113.70 L 449.60 113.80 L 452.70 114.50 L 456.60 116.00 L 463.70 119.30 L 512.10 142.70 L 512.10 162.70 L 513.00 164.50 L 514.30 166.10 L 516.00 167.30 L 578.50 196.10 L 581.80 196.60 L 582.90 195.90 L 583.30 195.00 L 583.80 187.30 L 583.80 175.80 L 632.60 200.60 L 636.60 203.70 L 639.30 207.20 L 641.60 212.40 L 642.30 215.70 L 642.70 219.80 L 643.10 252.40 L 644.90 586.50 L 644.60 589.50 L 643.20 593.00 L 641.90 594.40 L 640.20 595.60 L 638.90 596.10 L 635.20 596.10 L 630.80 594.70 L 618.80 588.60 L 580.40 570.20 L 439.20 504.20 Z" fill="url(#linear-gradient-7)" fill-rule="nonzero" group-id="9" id="路径_1695" node-id="63" stroke="none" target-height="482.39996" target-width="208.50003" target-x="436.4" target-y="113.7"></path><path d="M 514.90 241.60 L 560.20 261.50 L 560.20 334.80 L 580.80 347.60 L 538.20 394.20 L 492.60 307.00 L 514.90 315.60 Z" fill="#ffffff" fill-rule="nonzero" group-id="10" id="路径_1702" node-id="64" stroke="none" target-height="152.6" target-width="88.19998" target-x="492.6" target-y="241.6"></path><path d="M 354.60 208.70 L 354.60 238.20 L 218.50 250.60 Z" fill="url(#linear-gradient-8)" fill-rule="nonzero" group-id="11" id="路径_1700" node-id="65" stroke="none" target-height="41.90001" target-width="136.1" target-x="218.5" target-y="208.7"></path><path d="M 219.60 250.60 L 343.00 166.70 L 343.00 210.90 Z" fill="url(#linear-gradient-9)" fill-rule="nonzero" group-id="12" id="路径_1697" node-id="66" stroke="none" target-height="83.90001" target-width="123.399994" target-x="219.6" target-y="166.7"></path><path d="M 289.20 140.80 L 219.30 250.60 L 343.30 166.50 Z" fill="url(#linear-gradient-10)" fill-rule="nonzero" group-id="13" id="路径_1698" node-id="67" stroke="none" target-height="109.8" target-width="123.999985" target-x="219.3" target-y="140.8"></path><path d="M 360.10 182.70 L 218.80 250.60 L 418.80 213.30 Z" fill="url(#linear-gradient-11)" fill-rule="nonzero" group-id="14" id="路径_1699" node-id="68" stroke="none" target-height="67.90001" target-width="199.99998" target-x="218.8" target-y="182.7"></path><path d="M 291.30 312.60 L 325.00 296.40 L 333.50 292.70 L 336.00 292.10 L 338.70 292.00 L 342.20 292.40 L 346.00 293.50 L 351.40 295.50 L 383.30 310.20 L 433.10 334.50 L 511.00 373.50 L 549.20 393.40 L 555.10 398.00 L 557.90 400.60 L 561.10 404.00 L 564.10 407.80 L 567.00 412.40 L 568.70 415.70 L 571.50 423.40 L 572.30 427.60 L 572.80 432.10 L 572.30 467.90 L 572.50 572.90 L 571.30 575.30 L 566.70 579.20 L 562.60 581.70 L 553.10 586.30 L 542.90 590.30 L 537.90 591.70 L 530.90 593.10 L 527.10 593.00 L 519.60 589.10 L 504.40 579.70 L 483.30 566.20 L 337.30 469.40 L 334.20 466.80 L 331.00 463.70 L 327.60 459.70 L 323.60 453.50 L 320.50 446.20 L 319.60 442.20 L 317.70 427.80 L 314.40 411.30 L 304.90 369.00 L 291.30 312.60 Z" fill="url(#linear-gradient-12)" fill-rule="nonzero" group-id="15,20" id="路径_1692" node-id="70" stroke="none" target-height="301.09998" target-width="281.5" target-x="291.3" target-y="292"></path><path d="M 285.10 326.60 L 285.30 323.00 L 286.70 318.20 L 288.10 315.70 L 290.90 313.00 L 292.90 311.90 L 295.00 311.20 L 297.80 310.80 L 301.20 310.80 L 304.50 311.30 L 308.70 312.40 L 313.80 314.20 L 328.20 320.40 L 376.00 342.10 L 462.70 382.70 L 505.20 403.70 L 515.40 409.40 L 522.80 414.90 L 528.40 420.40 L 530.70 423.40 L 532.60 426.70 L 534.10 430.10 L 535.30 434.00 L 536.20 438.50 L 536.90 448.30 L 534.10 546.00 L 533.70 576.40 L 534.00 585.90 L 533.60 588.60 L 533.00 590.30 L 532.00 591.60 L 530.60 592.60 L 529.00 593.20 L 526.80 593.30 L 523.60 592.90 L 516.50 590.10 L 480.50 573.40 L 398.70 534.20 L 305.50 488.80 L 300.20 484.80 L 297.00 481.70 L 293.60 477.70 L 289.60 471.50 L 286.50 464.20 L 285.60 460.20 L 285.10 456.00 L 284.80 407.70 L 285.10 326.60 Z" fill="url(#linear-gradient-13)" fill-rule="nonzero" group-id="15,21" id="路径_1693" node-id="71" stroke="none" target-height="282.5" target-width="252.10004" target-x="284.8" target-y="310.8"></path><path d="M 285.10 332.60 L 285.30 329.00 L 286.70 324.20 L 288.10 321.70 L 290.90 319.00 L 292.90 317.90 L 295.00 317.20 L 297.80 316.80 L 301.20 316.80 L 304.50 317.30 L 308.70 318.40 L 313.80 320.20 L 328.10 326.30 L 375.00 347.20 L 432.60 373.70 L 460.20 386.70 L 484.00 398.40 L 502.10 407.90 L 508.90 411.80 L 512.40 414.20 L 517.10 418.10 L 520.80 421.40 L 524.00 424.80 L 526.30 428.10 L 528.20 431.60 L 529.50 435.50 L 530.30 439.70 L 530.80 450.60 L 529.50 486.50 L 527.90 545.10 L 527.40 573.90 L 527.70 583.10 L 527.30 585.90 L 526.70 587.50 L 525.70 588.80 L 524.40 589.80 L 522.80 590.40 L 520.50 590.50 L 517.40 590.10 L 515.50 589.50 L 495.90 580.80 L 450.80 559.40 L 369.10 519.90 L 305.50 488.80 L 300.20 484.80 L 297.00 481.70 L 293.60 477.70 L 289.60 471.50 L 287.80 467.90 L 286.50 464.20 L 285.60 460.20 L 285.10 456.00 L 284.80 409.60 L 285.10 332.60 Z" fill="url(#linear-gradient-14)" fill-rule="nonzero" group-id="15,22" id="路径_1701" node-id="72" stroke="none" target-height="273.7" target-width="246" target-x="284.8" target-y="316.8"></path><path d="M 351.30 414.00 L 352.30 418.00 L 352.70 421.80 L 352.70 425.40 L 352.20 429.00 L 351.20 432.10 L 349.90 434.70 L 348.60 436.50 L 345.40 439.10 L 343.60 439.90 L 339.50 440.30 L 335.40 439.10 L 332.80 437.70 L 330.30 435.70 L 327.90 433.00 L 325.90 430.00 L 324.10 426.60 L 322.60 422.70 L 321.70 418.70 L 321.20 414.90 L 321.30 411.30 L 321.80 407.70 L 322.70 404.60 L 324.10 402.00 L 325.40 400.20 L 328.50 397.60 L 330.40 396.80 L 334.40 396.40 L 338.50 397.60 L 341.10 399.00 L 343.60 401.10 L 346.00 403.70 L 348.10 406.70 L 349.90 410.10 L 351.30 414.00 Z" fill="#ffffff" fill-rule="nonzero" group-id="15,23" id="椭圆_711" node-id="73" stroke="none" target-height="43.899994" target-width="31.5" target-x="321.2" target-y="396.4"></path><path d="M 421.40 447.60 L 422.30 451.70 L 422.80 455.50 L 422.70 459.10 L 422.20 462.70 L 421.30 465.70 L 419.90 468.40 L 418.60 470.20 L 415.50 472.80 L 413.60 473.60 L 409.60 474.00 L 405.40 472.80 L 402.90 471.40 L 400.40 469.30 L 397.90 466.70 L 395.90 463.70 L 394.10 460.30 L 392.70 456.40 L 391.70 452.40 L 391.30 448.60 L 391.30 445.00 L 391.80 441.40 L 392.80 438.30 L 394.10 435.70 L 395.40 433.90 L 398.60 431.30 L 400.40 430.50 L 404.40 430.10 L 408.60 431.20 L 411.20 432.70 L 413.60 434.70 L 416.10 437.40 L 418.10 440.40 L 419.90 443.80 L 421.40 447.60 Z" fill="#ffffff" fill-rule="nonzero" group-id="15,24" id="椭圆_712" node-id="74" stroke="none" target-height="43.899994" target-width="31.5" target-x="391.3" target-y="430.1"></path><path d="M 492.40 482.90 L 493.30 486.90 L 493.80 490.80 L 493.70 494.40 L 493.20 497.90 L 492.30 501.00 L 490.90 503.70 L 489.60 505.50 L 486.50 508.00 L 484.60 508.80 L 480.60 509.20 L 476.40 508.10 L 473.90 506.60 L 471.40 504.60 L 468.90 501.90 L 466.90 499.00 L 465.10 495.60 L 463.70 491.70 L 462.70 487.60 L 462.30 483.80 L 462.30 480.20 L 462.80 476.70 L 463.80 473.60 L 465.10 470.90 L 466.40 469.10 L 469.60 466.60 L 471.40 465.80 L 475.40 465.40 L 479.60 466.50 L 482.20 468.00 L 484.60 470.00 L 487.10 472.60 L 489.10 475.60 L 490.90 479.00 L 492.40 482.90 Z" fill="#ffffff" fill-rule="nonzero" group-id="15,25" id="椭圆_713" node-id="75" stroke="none" target-height="43.80002" target-width="31.5" target-x="462.3" target-y="465.4"></path></g></svg>