<?xml version="1.0" standalone="no"?><!DOCTYPE svg PUBLIC "-//W3C//DTD SVG 1.1//EN" "http://www.w3.org/Graphics/SVG/1.1/DTD/svg11.dtd"><svg height="1024" node-id="1" sillyvg="true" template-height="1024" template-width="1024" version="1.1" viewBox="0 0 1024 1024" width="1024" xmlns="http://www.w3.org/2000/svg" xmlns:xlink="http://www.w3.org/1999/xlink"><defs node-id="132"><linearGradient gradientUnits="objectBoundingBox" id="linear-gradient" node-id="3" spreadMethod="pad" x1="0.4432002" x2="0.53124" y1="0.45320472" y2="0.85638684"><stop offset="0" stop-color="#96a9dc" stop-opacity="0.322"></stop><stop offset="0.715" stop-color="#f0f3fa" stop-opacity="0.02"></stop><stop offset="1" stop-color="#ffffff" stop-opacity="0"></stop></linearGradient><linearGradient gradientUnits="objectBoundingBox" id="linear-gradient-2" node-id="7" spreadMethod="pad" x1="0.01" x2="1.032" y1="0.564" y2="0.363"><stop offset="0" stop-color="#e6f0fa"></stop><stop offset="0.355" stop-color="#d1e0fc"></stop><stop offset="0.566" stop-color="#d2e1fe"></stop><stop offset="1" stop-color="#c7ddfc"></stop></linearGradient><linearGradient gradientUnits="objectBoundingBox" id="linear-gradient-3" node-id="12" spreadMethod="pad" x1="0.131" x2="0.989" y1="0.85" y2="0.171"><stop offset="0" stop-color="#ffffff"></stop><stop offset="1" stop-color="#c7deff"></stop></linearGradient><linearGradient gradientUnits="objectBoundingBox" id="linear-gradient-4" node-id="15" spreadMethod="pad" x1="-0.033" x2="1.015" y1="0.619" y2="0.426"><stop offset="0" stop-color="#e6edf8"></stop><stop offset="1" stop-color="#e0edff"></stop></linearGradient><linearGradient gradientUnits="objectBoundingBox" id="linear-gradient-5" node-id="18" spreadMethod="pad" x1="0.083" x2="0.946" y1="0.029" y2="1.025"><stop offset="0" stop-color="#97b7ff"></stop><stop offset="0.554" stop-color="#77a2ff"></stop><stop offset="0.628" stop-color="#4c83fe"></stop><stop offset="0.727" stop-color="#6495ff"></stop><stop offset="1" stop-color="#6b9aff"></stop></linearGradient><linearGradient gradientUnits="objectBoundingBox" id="linear-gradient-6" node-id="24" spreadMethod="pad" x1="0.867" x2="0.458" y1="0.464" y2="0.769"><stop offset="0" stop-color="#a8ccfc"></stop><stop offset="1" stop-color="#f0f5ff"></stop></linearGradient><linearGradient gradientUnits="objectBoundingBox" id="linear-gradient-7" node-id="27" spreadMethod="pad" x1="0.031" x2="0.943" y1="0.035" y2="0.935"><stop offset="0" stop-color="#709dff"></stop><stop offset="1" stop-color="#3775ff"></stop></linearGradient><linearGradient gradientUnits="objectBoundingBox" id="linear-gradient-8" node-id="30" spreadMethod="pad" x1="0.09" x2="1.055" y1="0.727" y2="0"><stop offset="0" stop-color="#b1f5e6"></stop><stop offset="1" stop-color="#6edfc5"></stop></linearGradient><linearGradient gradientUnits="objectBoundingBox" id="linear-gradient-9" node-id="33" spreadMethod="pad" x1="0.16" x2="0.888" y1="0.5" y2="0.5"><stop offset="0" stop-color="#69ebcc"></stop><stop offset="1" stop-color="#b5f6e7"></stop></linearGradient><linearGradient gradientUnits="objectBoundingBox" id="linear-gradient-10" node-id="42" spreadMethod="pad" x1="0.5" x2="0.5" y1="0" y2="1"><stop offset="0" stop-color="#739eff"></stop><stop offset="1" stop-color="#b8cdff"></stop></linearGradient><linearGradient gradientUnits="objectBoundingBox" id="linear-gradient-11" node-id="45" spreadMethod="pad" x1="0.5" x2="0.5" y1="0" y2="1"><stop offset="0" stop-color="#568af9"></stop><stop offset="1" stop-color="#a5c0ff"></stop></linearGradient><linearGradient gradientUnits="objectBoundingBox" id="linear-gradient-12" node-id="54" spreadMethod="pad" x1="0.819" x2="0.074" y1="0.228" y2="0.773"><stop offset="0" stop-color="#d4e5f4"></stop><stop offset="1" stop-color="#9dc4f6"></stop></linearGradient><linearGradient gradientUnits="objectBoundingBox" id="linear-gradient-13" node-id="57" spreadMethod="pad" x1="0.5" x2="0.5" y1="0" y2="1"><stop offset="0" stop-color="#d5e5fd"></stop><stop offset="1" stop-color="#a5ccff"></stop></linearGradient><filter height="171.445" id="路径_1513" node-id="36" width="65.37903" x="666.015" y="585.903"><feOffset color-interpolation-filters="linearRGB" dx="0" dy="3" in="SourceGraphic" result="result1"></feOffset><feGaussianBlur color-interpolation-filters="linearRGB" in="result1" result="blur" stdDeviation="3 3"></feGaussianBlur><feFlood color-interpolation-filters="linearRGB" flood-color="#000000" flood-opacity="0.141" result="result3"></feFlood><feComposite color-interpolation-filters="linearRGB" in="result3" in2="blur" operator="in" result="result4"></feComposite><feComposite color-interpolation-filters="linearRGB" in="SourceGraphic" in2="result4" operator="over" result="result5"></feComposite></filter><filter height="138.953" id="路径_1513-2" node-id="48" width="65.37903" x="580.353" y="666.641"><feOffset color-interpolation-filters="linearRGB" dx="0" dy="3" in="SourceGraphic" result="result1"></feOffset><feGaussianBlur color-interpolation-filters="linearRGB" in="result1" result="blur-2" stdDeviation="3 3"></feGaussianBlur><feFlood color-interpolation-filters="linearRGB" flood-color="#000000" flood-opacity="0.361" result="result3"></feFlood><feComposite color-interpolation-filters="linearRGB" in="result3" in2="blur-2" operator="in" result="result4"></feComposite><feComposite color-interpolation-filters="linearRGB" in="SourceGraphic" in2="result4" operator="over" result="result5"></feComposite></filter><clipPath id="clip-管理技术" node-id="60"><path d="M 0.00 0.00 L 1024.00 0.00 L 1024.00 1024.00 L 0.00 1024.00 Z" fill="#000000" fill-rule="nonzero" node-id="249" stroke="none" target-height="1024" target-width="1024" target-x="0" target-y="0"></path></clipPath></defs><g clip-path="url(#clip-管理技术)" id="管理技术" node-id="62"><path d="M 0.00 0.00 L 1024.00 0.00 L 1024.00 1024.00 L 0.00 1024.00 Z" fill="#ffffff" fill-rule="nonzero" node-id="254" stroke="none" target-height="1024" target-width="1024" target-x="0" target-y="0"></path><path d="M 359.10 814.90 L 470.60 910.10 L 616.80 965.10 L 1033.40 686.50 L 926.70 637.80 Z" fill="url(#linear-gradient)" fill-rule="nonzero" group-id="1" id="路径_1463" node-id="64" stroke="none" target-height="327.3" target-width="674.30005" target-x="359.1" target-y="637.8"></path><path d="M 170.70 635.00 L 158.90 635.90 L 147.40 637.70 L 141.20 639.10 L 131.00 642.30 L 123.80 645.80 L 120.60 648.00 L 118.00 650.30 L 115.90 652.90 L 112.30 659.80 L 108.60 670.20 L 105.60 683.00 L 103.70 697.30 L 103.20 705.10 L 103.20 713.00 L 103.60 721.00 L 104.50 729.10 L 105.50 735.20 L 108.70 747.10 L 110.80 753.00 L 113.30 758.70 L 116.20 764.20 L 119.60 769.50 L 123.50 774.70 L 128.40 780.20 L 134.10 785.90 L 140.50 791.70 L 154.20 802.70 L 173.10 816.10 L 196.60 830.70 L 228.10 848.40 L 273.40 872.30 L 291.80 880.90 L 302.40 885.40 L 314.10 889.90 L 326.20 894.20 L 347.80 900.50 L 365.70 904.40 L 374.80 905.80 L 383.90 906.80 L 393.00 907.40 L 411.60 907.90 L 428.20 908.10 L 444.30 907.80 L 458.80 907.10 L 473.00 906.00 L 486.30 904.30 L 499.30 902.00 L 512.00 899.20 L 524.60 895.70 L 537.50 891.60 L 543.10 889.30 L 553.00 884.60 L 578.30 871.20 L 611.60 852.70 L 650.90 830.30 L 739.80 778.30 L 829.60 724.90 L 904.80 679.60 L 956.60 647.70 L 957.00 643.70 L 957.10 635.10 L 956.60 601.90 L 542.90 421.60 Z" fill="url(#linear-gradient-2)" fill-rule="nonzero" group-id="2,9" id="路径_1469" node-id="66" stroke="none" target-height="486.49997" target-width="853.89996" target-x="103.2" target-y="421.6"></path><path d="M 170.70 586.80 L 160.90 593.40 L 146.00 604.60 L 135.50 613.60 L 130.80 618.10 L 126.60 622.60 L 123.50 626.80 L 117.40 637.20 L 114.30 643.70 L 111.30 651.30 L 108.10 662.10 L 107.00 668.10 L 106.30 674.10 L 106.10 680.30 L 106.40 686.80 L 108.00 696.50 L 111.30 706.60 L 113.50 711.50 L 116.30 716.50 L 119.60 721.50 L 123.50 726.70 L 128.40 732.20 L 134.00 737.90 L 140.40 743.70 L 154.10 754.70 L 161.60 760.20 L 173.10 768.10 L 184.80 775.60 L 207.70 789.20 L 228.10 800.40 L 273.30 824.30 L 291.80 832.90 L 302.30 837.40 L 314.00 841.90 L 326.20 846.20 L 347.80 852.50 L 365.70 856.40 L 374.80 857.80 L 383.90 858.80 L 392.90 859.40 L 411.60 859.90 L 428.20 860.10 L 444.20 859.80 L 458.80 859.10 L 473.00 858.00 L 486.20 856.30 L 499.30 854.00 L 512.00 851.20 L 524.60 847.70 L 537.40 843.60 L 543.10 841.30 L 552.80 836.70 L 563.70 831.20 L 610.80 805.70 L 692.30 759.40 L 825.90 681.50 L 952.50 606.60 L 955.50 604.20 L 956.10 603.20 L 956.30 601.00 L 955.80 600.10 L 954.70 599.00 L 952.50 597.80 L 924.20 582.60 L 542.90 373.60 Z" fill="url(#linear-gradient-3)" fill-rule="nonzero" group-id="2,10" id="路径_1470" node-id="67" stroke="none" target-height="486.49997" target-width="850.2" target-x="106.1" target-y="373.6"></path><path d="M 172.70 580.00 L 162.90 586.60 L 148.00 597.70 L 137.50 606.60 L 132.90 611.10 L 128.70 615.60 L 125.50 619.80 L 122.70 624.30 L 119.40 630.20 L 116.30 636.70 L 113.30 644.30 L 110.20 655.10 L 109.10 661.10 L 108.40 667.10 L 108.20 673.30 L 108.50 679.80 L 110.10 689.50 L 113.40 699.60 L 115.60 704.50 L 118.30 709.50 L 121.60 714.50 L 125.50 719.70 L 130.40 725.20 L 136.10 730.90 L 142.50 736.70 L 156.20 747.70 L 175.10 761.10 L 186.80 768.60 L 209.70 782.20 L 261.80 810.20 L 275.40 817.30 L 293.80 825.90 L 316.10 834.90 L 328.20 839.20 L 349.80 845.50 L 367.70 849.40 L 376.80 850.80 L 385.90 851.80 L 395.00 852.40 L 413.60 852.90 L 430.20 853.10 L 446.30 852.80 L 460.80 852.10 L 475.00 851.00 L 488.30 849.30 L 501.30 847.00 L 514.00 844.20 L 526.60 840.70 L 539.50 836.60 L 545.10 834.30 L 554.80 829.80 L 579.80 816.90 L 612.50 799.20 L 651.10 777.70 L 738.30 728.20 L 826.40 677.20 L 952.30 603.60 L 954.60 601.90 L 955.50 600.70 L 956.10 599.60 L 956.20 598.30 L 955.60 597.00 L 954.50 595.90 L 952.30 594.60 L 924.10 579.10 L 544.90 366.60 Z" fill="url(#linear-gradient-4)" fill-rule="nonzero" group-id="2,11" id="路径_1471" node-id="68" stroke="none" target-height="486.49997" target-width="848" target-x="108.2" target-y="366.6"></path><path d="M 241.80 602.90 L 485.10 462.20 L 681.10 633.70 L 490.30 747.30 Z" fill="#f0f5ff" fill-rule="nonzero" group-id="3,12,44" id="路径_1509" node-id="71" stroke="none" target-height="285.09998" target-width="439.3" target-x="241.8" target-y="462.2"></path><path d="M 490.00 747.30 L 490.00 787.30 L 711.10 658.60 L 681.40 633.30 Z" fill="#cbdef9" fill-rule="nonzero" group-id="3,12,45" id="路径_1511" node-id="72" stroke="none" target-height="154" target-width="221.09998" target-x="490" target-y="633.3"></path><path d="M 241.80 642.70 L 490.10 786.70 L 490.10 747.30 L 241.80 603.10 Z" fill="#f9ffff" fill-rule="nonzero" group-id="3,12,46" id="路径_1510" node-id="73" stroke="none" target-height="183.60004" target-width="248.3" target-x="241.8" target-y="603.1"></path><path d="M 271.00 547.80 L 514.30 407.10 L 710.30 578.50 L 519.50 692.20 Z" fill="#f0f5ff" fill-rule="nonzero" group-id="3,13,47" id="路径_1509-2" node-id="75" stroke="none" target-height="285.1" target-width="439.3" target-x="271" target-y="407.1"></path><path d="M 519.30 692.20 L 519.30 732.10 L 740.30 603.50 L 710.60 578.20 Z" fill="#dae6f5" fill-rule="nonzero" group-id="3,13,48" id="路径_1511-2" node-id="76" stroke="none" target-height="153.89996" target-width="221" target-x="519.3" target-y="578.2"></path><path d="M 271.00 587.50 L 519.30 731.60 L 519.30 692.20 L 271.00 547.90 Z" fill="#f9ffff" fill-rule="nonzero" group-id="3,13,49" id="路径_1510-2" node-id="77" stroke="none" target-height="183.69995" target-width="248.29999" target-x="271" target-y="547.9"></path><path d="M 338.00 133.20 L 367.40 119.70 L 369.90 119.10 L 372.50 119.00 L 375.10 119.60 L 377.50 120.60 L 782.40 353.40 L 791.10 358.50 L 794.20 361.30 L 796.00 364.60 L 796.80 367.10 L 797.50 372.80 L 797.30 434.50 L 797.50 652.10 L 797.30 655.40 L 796.00 659.20 L 794.80 660.60 L 766.20 678.60 L 732.00 634.10 Z" fill="url(#linear-gradient-5)" fill-rule="nonzero" group-id="4,14" id="路径_1472" node-id="79" stroke="none" target-height="559.6" target-width="459.5" target-x="338" target-y="119"></path><path d="M 334.00 138.10 L 334.80 134.40 L 335.50 133.00 L 336.40 131.70 L 337.70 130.80 L 339.40 130.20 L 340.60 130.20 L 344.00 131.20 L 396.60 160.80 L 511.20 226.30 L 738.60 357.00 L 763.10 371.30 L 765.70 373.40 L 767.90 375.60 L 770.20 379.20 L 771.10 381.50 L 772.10 386.60 L 772.20 389.90 L 770.70 595.80 L 770.60 676.70 L 770.40 678.30 L 769.80 679.60 L 767.70 681.80 L 766.20 682.40 L 764.40 682.80 L 762.50 682.70 L 760.50 682.20 L 758.10 681.10 L 340.30 440.20 L 337.60 438.40 L 335.50 436.30 L 334.00 433.90 L 333.00 431.20 L 332.40 428.10 L 332.20 424.50 L 334.00 138.10 Z" fill="url(#linear-gradient-6)" fill-rule="nonzero" group-id="4,15" id="路径_1473" node-id="80" stroke="none" target-height="552.6" target-width="440" target-x="332.2" target-y="130.2"></path><path d="M 335.70 137.70 L 336.30 135.40 L 338.00 133.10 L 339.20 132.50 L 340.20 132.40 L 342.90 133.40 L 755.70 372.10 L 762.30 376.10 L 765.10 378.80 L 766.20 380.60 L 767.10 383.30 L 767.70 386.40 L 767.90 391.00 L 767.00 595.10 L 767.00 675.00 L 766.80 676.80 L 766.40 678.00 L 765.70 678.70 L 764.70 679.20 L 763.20 679.20 L 761.00 678.70 L 757.90 677.10 L 344.10 438.50 L 341.40 436.80 L 339.30 434.90 L 337.80 432.80 L 336.70 430.40 L 336.00 427.50 L 335.80 424.10 L 335.70 137.70 Z" fill="url(#linear-gradient-7)" fill-rule="nonzero" group-id="4,16" id="路径_1474" node-id="81" stroke="none" target-height="546.80005" target-width="432.2" target-x="335.7" target-y="132.4"></path><path d="M 362.50 183.20 L 363.10 181.30 L 364.40 179.50 L 365.40 179.10 L 366.60 179.00 L 368.30 179.80 L 730.20 391.00 L 736.80 395.00 L 739.00 397.20 L 740.70 400.70 L 741.10 403.20 L 741.20 406.90 L 740.50 569.40 L 740.60 633.00 L 740.30 634.80 L 739.70 635.90 L 738.70 636.40 L 737.50 636.40 L 735.80 636.00 L 733.30 634.80 L 369.30 422.80 L 367.10 421.40 L 365.40 419.90 L 364.20 418.20 L 363.40 416.30 L 362.80 414.00 L 362.60 411.30 L 362.50 183.20 Z" fill="#88aeff" fill-rule="nonzero" group-id="4,17" id="路径_1515" node-id="82" stroke="#b2d1ff" stroke-linecap="butt" stroke-width="1.2" target-height="457.40002" target-width="378.7" target-x="362.5" target-y="179"></path><path d="M 169.80 418.70 L 166.20 445.30 L 153.90 475.00 L 166.20 488.50 L 168.30 508.70 L 177.90 517.30 L 207.30 502.40 L 228.70 480.50 L 250.80 464.20 L 252.90 437.20 L 257.50 410.20 L 256.00 380.00 L 248.30 372.90 L 228.70 381.00 L 209.20 376.80 L 190.40 402.30 Z" fill="url(#linear-gradient-8)" fill-rule="nonzero" group-id="5,18" id="路径_1497" node-id="84" stroke="none" target-height="144.4" target-width="103.600006" target-x="153.9" target-y="372.9"></path><path d="M 177.60 426.60 L 174.10 453.20 L 162.00 480.60 L 174.10 493.40 L 177.60 517.90 L 200.40 509.70 L 217.10 514.70 L 236.60 488.40 L 258.60 472.00 L 260.80 445.00 L 274.30 417.30 L 258.60 403.50 L 256.10 380.70 L 236.60 388.90 L 217.10 384.60 L 198.20 410.20 Z" fill="url(#linear-gradient-9)" fill-rule="nonzero" group-id="5,19" id="路径_1498" node-id="85" stroke="#e8f3ff" stroke-linecap="butt" stroke-width="1" target-height="137.20001" target-width="112.29999" target-x="162" target-y="380.7"></path><path d="M 210.90 464.20 L 202.20 459.20 L 200.60 458.90 L 199.00 459.10 L 197.60 459.90 L 196.50 461.20 L 196.20 462.40 L 196.40 464.40 L 198.20 466.70 L 208.30 473.10 L 211.20 473.50 L 212.50 473.30 L 213.70 472.60 L 214.80 471.20 L 237.00 432.50 L 237.70 431.00 L 237.90 429.10 L 237.60 428.30 L 237.00 427.60 L 236.10 427.40 L 234.60 428.10 L 232.80 430.60 L 213.70 463.70 L 212.20 464.60 L 210.90 464.20 Z" fill="#ffffff" fill-rule="nonzero" group-id="5,20" id="路径_1436" node-id="86" stroke="none" target-height="46.100006" target-width="41.699997" target-x="196.2" target-y="427.4"></path><path d="M 420.70 313.40 L 417.90 311.60 L 416.70 310.30 L 415.90 308.60 L 415.90 305.70 L 418.00 300.30 L 419.70 297.30 L 423.70 292.40 L 425.80 290.60 L 427.80 289.50 L 430.00 288.80 L 432.60 288.70 L 435.40 289.10 L 438.30 290.00 L 441.80 292.30 L 445.90 296.80 L 448.60 300.70 L 453.60 309.50 L 455.60 314.30 L 457.00 318.60 L 458.10 324.90 L 458.20 327.80 L 457.90 330.20 L 456.80 332.70 L 454.70 333.90 L 453.10 334.10 L 450.80 333.80 L 448.10 332.80 L 444.60 331.00 L 437.20 326.20 L 420.70 313.40 Z" fill="#6f9cff" fill-rule="nonzero" group-id="6,21" id="路径_1499" node-id="88" stroke="none" target-height="45.399994" target-width="42.30002" target-x="415.9" target-y="288.7"></path><path d="M 416.80 317.30 L 414.00 315.50 L 412.80 314.20 L 412.00 312.50 L 411.80 311.30 L 412.60 307.40 L 414.10 304.20 L 417.70 298.60 L 421.90 294.60 L 423.90 293.40 L 426.10 292.80 L 428.70 292.60 L 431.40 293.00 L 436.10 294.90 L 439.50 297.80 L 441.90 300.70 L 447.30 308.90 L 449.70 313.50 L 451.70 318.20 L 453.00 322.60 L 454.30 330.00 L 454.30 331.90 L 453.90 333.20 L 453.20 333.90 L 452.30 334.20 L 450.70 334.00 L 448.00 333.00 L 416.80 317.30 Z" fill="#dee9ff" fill-rule="nonzero" group-id="6,22" id="路径_1500" node-id="89" stroke="none" target-height="41.600006" target-width="42.5" target-x="411.8" target-y="292.6"></path><path d="M 444.20 264.30 L 447.80 269.70 L 449.60 275.20 L 450.00 277.70 L 449.80 280.10 L 449.30 282.40 L 448.30 284.30 L 446.90 285.90 L 445.10 287.00 L 443.00 287.60 L 440.70 287.80 L 438.40 287.50 L 435.90 286.70 L 430.80 283.90 L 426.10 279.50 L 422.60 274.10 L 420.70 268.60 L 420.40 266.10 L 420.50 263.70 L 421.00 261.40 L 422.00 259.50 L 423.50 257.90 L 425.30 256.80 L 427.30 256.20 L 429.60 256.00 L 432.00 256.30 L 434.40 257.10 L 439.50 259.90 L 444.20 264.30 Z" fill="#6f9cff" fill-rule="nonzero" group-id="6,23" id="椭圆_664" node-id="90" stroke="none" target-height="31.799988" target-width="29.600006" target-x="420.4" target-y="256"></path><path d="M 441.30 268.20 L 444.80 273.60 L 446.70 279.10 L 447.00 281.70 L 446.90 284.10 L 446.30 286.30 L 445.30 288.20 L 443.90 289.80 L 442.10 290.90 L 440.10 291.60 L 437.80 291.70 L 435.40 291.40 L 432.90 290.70 L 427.90 287.90 L 423.20 283.40 L 419.60 278.00 L 417.70 272.60 L 417.40 270.00 L 417.50 267.60 L 418.10 265.40 L 419.10 263.50 L 420.50 261.90 L 422.30 260.80 L 424.30 260.10 L 426.70 260.00 L 429.00 260.30 L 431.50 261.00 L 436.60 263.80 L 441.30 268.20 Z" fill="#dee9ff" fill-rule="nonzero" group-id="6,24" id="椭圆_665" node-id="91" stroke="none" target-height="31.700012" target-width="29.600006" target-x="417.4" target-y="260"></path><path d="M 473.80 293.40 L 474.20 291.60 L 474.70 290.70 L 475.60 290.10 L 477.10 290.20 L 521.10 316.00 L 522.70 317.80 L 523.20 319.30 L 523.40 321.70 L 523.20 331.60 L 522.70 332.50 L 521.20 333.20 L 520.10 333.00 L 518.20 332.20 L 476.10 303.90 L 474.90 302.70 L 473.80 300.50 L 473.80 293.40 Z" fill="#6a98ff" fill-rule="nonzero" group-id="6,25,50" id="路径_1501" node-id="93" stroke="none" target-height="43.100006" target-width="49.600037" target-x="473.8" target-y="290.1"></path><path d="M 471.80 296.40 L 472.20 294.50 L 472.80 293.60 L 473.60 293.10 L 475.20 293.20 L 518.20 318.50 L 519.80 320.40 L 520.30 321.90 L 520.60 329.70 L 520.10 331.30 L 519.60 331.70 L 517.40 331.80 L 515.50 331.00 L 475.30 307.60 L 472.90 305.60 L 471.90 303.50 L 471.80 296.40 Z" fill="#d1e1ff" fill-rule="nonzero" group-id="6,25,51" id="路径_1502" node-id="94" stroke="none" target-height="38.69998" target-width="48.799988" target-x="471.8" target-y="293.1"></path><path d="M 413.60 343.30 L 414.00 341.40 L 414.50 340.60 L 415.30 340.00 L 416.90 340.10 L 418.20 340.80 L 494.60 385.20 L 496.20 387.00 L 496.70 388.50 L 497.00 391.00 L 496.70 400.80 L 496.30 401.80 L 494.80 402.40 L 493.60 402.30 L 491.70 401.50 L 415.90 353.70 L 414.70 352.50 L 413.60 350.40 L 413.60 343.30 Z" fill="#6a98ff" fill-rule="nonzero" group-id="6,26,52" id="路径_1501-2" node-id="96" stroke="none" target-height="62.399994" target-width="83.399994" target-x="413.6" target-y="340"></path><path d="M 411.60 346.20 L 412.00 344.40 L 412.50 343.50 L 413.40 343.00 L 414.90 343.10 L 416.30 343.70 L 491.80 387.60 L 493.40 389.40 L 493.90 390.90 L 494.20 398.80 L 493.70 400.30 L 493.10 400.70 L 491.00 400.80 L 489.10 400.00 L 415.10 357.50 L 412.70 355.50 L 411.60 353.30 L 411.60 346.20 Z" fill="#d1e1ff" fill-rule="nonzero" group-id="6,26,53" id="路径_1502-2" node-id="97" stroke="none" target-height="57.799988" target-width="82.600006" target-x="411.6" target-y="343"></path><path d="M 473.80 322.60 L 474.20 320.80 L 474.70 319.90 L 475.60 319.30 L 477.10 319.40 L 478.50 320.10 L 544.70 358.80 L 546.30 360.60 L 546.80 362.10 L 547.10 364.60 L 546.80 374.50 L 546.40 375.40 L 544.80 376.00 L 543.70 375.90 L 541.80 375.10 L 476.10 333.00 L 474.90 331.90 L 473.80 329.70 L 473.80 322.60 Z" fill="#6a98ff" fill-rule="nonzero" group-id="6,27,54" id="路径_1501-3" node-id="99" stroke="none" target-height="56.700012" target-width="73.29999" target-x="473.8" target-y="319.3"></path><path d="M 471.80 325.60 L 472.20 323.70 L 472.80 322.80 L 473.60 322.30 L 475.20 322.40 L 476.50 323.00 L 542.10 361.90 L 543.70 363.70 L 544.20 365.20 L 544.50 373.10 L 544.00 374.60 L 543.40 375.00 L 541.30 375.10 L 539.40 374.30 L 475.30 336.80 L 472.90 334.80 L 471.90 332.70 L 471.80 325.60 Z" fill="#d1e1ff" fill-rule="nonzero" group-id="6,27,55" id="路径_1502-3" node-id="100" stroke="none" target-height="52.80002" target-width="72.70001" target-x="471.8" target-y="322.3"></path><path d="M 413.60 372.80 L 414.00 371.00 L 414.50 370.10 L 415.30 369.50 L 416.90 369.70 L 418.20 370.30 L 518.30 427.90 L 519.90 429.70 L 520.50 431.20 L 520.70 433.60 L 520.50 443.50 L 520.00 444.40 L 518.50 445.10 L 517.30 444.90 L 515.50 444.10 L 417.10 384.10 L 414.70 382.10 L 413.60 379.90 L 413.60 372.80 Z" fill="#6a98ff" fill-rule="nonzero" group-id="6,28,56" id="路径_1501-4" node-id="102" stroke="none" target-height="75.600006" target-width="107.100006" target-x="413.6" target-y="369.5"></path><path d="M 411.60 375.80 L 412.00 373.90 L 412.50 373.00 L 413.40 372.50 L 414.90 372.60 L 416.30 373.30 L 516.00 430.60 L 517.60 432.40 L 518.10 433.90 L 518.40 441.80 L 517.90 443.30 L 517.40 443.70 L 515.20 443.80 L 513.40 443.00 L 415.10 387.00 L 412.70 385.00 L 411.60 382.90 L 411.60 375.80 Z" fill="#d1e1ff" fill-rule="nonzero" group-id="6,28,57" id="路径_1502-4" node-id="103" stroke="none" target-height="71.29999" target-width="106.80002" target-x="411.6" target-y="372.5"></path><path d="M 612.20 443.60 L 605.10 469.50 L 604.80 472.00 L 605.00 473.40 L 605.70 474.80 L 607.60 476.30 L 619.80 479.90 L 621.00 480.80 L 623.90 485.00 L 628.30 495.00 L 630.00 496.70 L 630.50 496.70 L 631.70 495.60 L 632.20 493.80 L 637.30 474.20 Z" fill="#598eff" fill-rule="nonzero" group-id="6,29,58" id="路径_1505" node-id="105" stroke="none" target-height="53.100006" target-width="32.5" target-x="604.8" target-y="443.6"></path><path d="M 609.20 444.60 L 602.10 470.40 L 601.80 472.90 L 602.00 474.40 L 602.80 475.80 L 604.70 477.30 L 616.90 480.90 L 618.10 481.70 L 620.90 486.00 L 625.40 496.00 L 627.00 497.70 L 627.60 497.70 L 628.70 496.60 L 629.30 494.70 L 634.40 475.20 Z" fill="#cdddff" fill-rule="nonzero" group-id="6,29,59" id="路径_1506" node-id="106" stroke="none" target-height="53.100006" target-width="32.600037" target-x="601.8" target-y="444.6"></path><path d="M 658.50 489.80 L 662.90 510.10 L 663.70 513.60 L 664.90 516.00 L 666.70 517.20 L 667.80 517.20 L 672.70 514.00 L 675.20 512.90 L 679.40 516.90 L 686.20 524.60 L 686.60 524.60 L 689.00 523.60 L 690.20 522.70 L 691.00 521.60 L 691.20 520.60 L 683.20 482.50 Z" fill="#598eff" fill-rule="nonzero" group-id="6,29,60" id="路径_1507" node-id="107" stroke="none" target-height="42.099976" target-width="32.700012" target-x="658.5" target-y="482.5"></path><path d="M 654.60 490.80 L 658.90 511.10 L 659.80 514.60 L 661.00 516.90 L 662.80 518.20 L 663.80 518.20 L 668.70 514.90 L 671.30 513.90 L 676.20 517.30 L 684.50 524.10 L 686.30 524.70 L 687.00 524.30 L 687.30 523.50 L 687.30 521.60 L 679.30 483.50 Z" fill="#cdddff" fill-rule="nonzero" group-id="6,29,61" id="路径_1508" node-id="108" stroke="none" target-height="41.200012" target-width="32.700012" target-x="654.6" target-y="483.5"></path><path d="M 679.60 415.60 L 682.60 421.30 L 687.30 432.20 L 690.40 443.10 L 692.00 453.40 L 691.90 463.10 L 691.30 467.50 L 690.30 471.50 L 688.90 475.20 L 687.10 478.60 L 684.90 481.60 L 682.30 484.10 L 679.40 486.20 L 676.10 487.70 L 672.60 488.70 L 669.00 489.10 L 665.00 489.00 L 661.20 488.30 L 657.20 487.20 L 653.10 485.50 L 644.70 480.70 L 636.60 474.30 L 628.70 466.10 L 621.50 456.50 L 618.20 451.10 L 615.10 445.40 L 610.40 434.50 L 607.30 423.50 L 605.80 413.30 L 605.60 408.50 L 605.80 403.60 L 606.40 399.20 L 607.40 395.20 L 608.80 391.50 L 610.60 388.00 L 612.80 385.10 L 615.40 382.60 L 618.30 380.50 L 621.60 379.00 L 625.10 378.00 L 628.80 377.60 L 632.70 377.70 L 636.50 378.40 L 640.50 379.50 L 644.70 381.20 L 649.00 383.40 L 657.10 389.00 L 665.30 396.40 L 672.70 405.20 L 679.60 415.60 Z" fill="#568cff" fill-rule="nonzero" group-id="6,29,62" id="椭圆_666" node-id="109" stroke="none" target-height="111.5" target-width="86.400024" target-x="605.6" target-y="377.6"></path><path d="M 674.60 420.50 L 677.70 426.20 L 682.40 437.20 L 685.50 448.10 L 687.10 458.30 L 687.20 463.10 L 687.00 468.00 L 686.40 472.40 L 685.40 476.40 L 684.00 480.10 L 682.20 483.60 L 680.00 486.50 L 677.40 489.00 L 674.50 491.10 L 671.20 492.70 L 667.70 493.60 L 664.10 494.00 L 660.10 493.90 L 656.30 493.20 L 652.30 492.10 L 648.10 490.40 L 643.80 488.20 L 639.80 485.60 L 631.60 479.20 L 623.80 471.00 L 616.60 461.40 L 610.20 450.40 L 605.50 439.40 L 602.40 428.50 L 600.80 418.20 L 600.70 413.40 L 600.90 408.50 L 601.50 404.10 L 602.50 400.10 L 603.90 396.50 L 605.70 393.00 L 607.90 390.00 L 610.50 387.50 L 613.40 385.40 L 616.70 383.90 L 620.20 382.90 L 623.80 382.50 L 627.80 382.70 L 631.60 383.30 L 635.60 384.40 L 639.70 386.10 L 644.10 388.40 L 652.20 393.90 L 660.30 401.40 L 667.80 410.10 L 674.60 420.50 Z" fill="#dde8ff" fill-rule="nonzero" group-id="6,29,63" id="椭圆_667" node-id="110" stroke="none" target-height="111.5" target-width="86.5" target-x="600.7" target-y="382.5"></path><path d="M 619.60 415.50 L 635.50 420.70 L 640.30 413.00 L 644.50 409.30 L 652.60 430.90 L 669.30 444.80 L 664.90 447.50 L 657.70 452.80 L 659.90 471.60 L 656.00 476.50 L 644.10 455.80 L 628.50 454.70 L 630.50 436.50 L 616.00 419.60 Z" fill="#568cff" fill-rule="nonzero" group-id="6,29,64" id="路径_1503" node-id="111" stroke="none" target-height="67.20001" target-width="53.299988" target-x="616" target-y="409.3"></path><path d="M 615.90 419.40 L 631.80 424.70 L 640.40 413.10 L 648.90 434.90 L 664.60 447.30 L 654.30 456.50 L 655.50 476.20 L 640.40 459.70 L 624.80 458.60 L 626.80 440.50 Z" fill="#81a9fb" fill-rule="nonzero" group-id="6,29,65" id="路径_1504" node-id="112" stroke="none" target-height="63.100006" target-width="48.69995" target-x="615.9" target-y="413.1"></path><path d="M 626.20 591.90 L 626.20 717.60 L 675.20 745.40 L 675.20 617.80 Z" fill="#1745fe" fill-opacity="0.46" fill-rule="nonzero" group-id="7,30" id="路径_1512" node-id="114" stroke="none" target-height="153.5" target-width="49" target-x="626.2" target-y="591.9"></path><path d="M 722.40 591.90 L 675.00 617.60 L 675.00 745.40 L 722.40 718.20 Z" fill="#1745fe" fill-opacity="0.46" fill-rule="nonzero" filter="url(#路径_1513)" group-id="7,31,66" id="路径_1513-3" node-id="116" stroke="none" target-height="153.5" target-width="47.400024" target-x="675" target-y="591.9"></path><path d="M 626.20 591.90 L 674.90 617.60 L 723.40 591.90 L 674.70 563.10 Z" fill="#1745fe" fill-opacity="0.46" fill-rule="nonzero" group-id="7,32" id="路径_1514" node-id="117" stroke="none" target-height="54.5" target-width="97.20001" target-x="626.2" target-y="563.1"></path><path d="M 626.20 591.90 L 626.20 717.60 L 675.20 745.40 L 675.20 617.80 Z" fill="url(#linear-gradient-10)" fill-opacity="0.93" fill-rule="nonzero" group-id="7,33" id="路径_1516" node-id="118" stroke="none" target-height="153.5" target-width="49" target-x="626.2" target-y="591.9"></path><path d="M 722.40 591.90 L 675.00 617.60 L 675.00 745.40 L 722.40 718.20 Z" fill="url(#linear-gradient-11)" fill-opacity="0.95" fill-rule="nonzero" group-id="7,34" id="路径_1517" node-id="119" stroke="none" target-height="153.5" target-width="47.400024" target-x="675" target-y="591.9"></path><path d="M 626.20 591.90 L 674.90 617.60 L 723.40 591.90 L 674.90 562.70 Z" fill="#80aaff" fill-opacity="0.9" fill-rule="nonzero" group-id="7,35" id="路径_1518" node-id="120" stroke="none" target-height="54.899963" target-width="97.20001" target-x="626.2" target-y="562.7"></path><path d="M 674.90 617.60 L 626.20 591.90 L 628.00 590.80 L 674.90 615.60 L 721.60 590.80 L 723.40 591.90 L 674.90 617.60 Z" fill="#ffffff" fill-opacity="0.43" fill-rule="nonzero" group-id="7,36" id="减去_1" node-id="121" stroke="none" target-height="26.799988" target-width="97.20001" target-x="626.2" target-y="590.8"></path><path d="M 540.50 672.60 L 540.50 765.60 L 589.50 793.40 L 589.50 698.50 Z" fill="#0a5fdf" fill-opacity="0.15" fill-rule="nonzero" group-id="8,37" id="路径_1512-2" node-id="123" stroke="none" target-height="120.80005" target-width="49" target-x="540.5" target-y="672.6"></path><path d="M 636.70 672.60 L 589.30 698.40 L 589.30 793.60 L 636.70 766.40 Z" fill="#0a5fdf" fill-opacity="0.15" fill-rule="nonzero" filter="url(#路径_1513-2)" group-id="8,38,67" id="路径_1513-4" node-id="125" stroke="none" target-height="121" target-width="47.400024" target-x="589.3" target-y="672.6"></path><path d="M 540.50 672.60 L 589.30 698.40 L 637.70 672.60 L 589.00 643.90 Z" fill="#0a5fdf" fill-opacity="0.15" fill-rule="nonzero" group-id="8,39" id="路径_1514-2" node-id="126" stroke="none" target-height="54.5" target-width="97.20001" target-x="540.5" target-y="643.9"></path><path d="M 540.50 672.60 L 540.50 765.60 L 589.50 793.40 L 589.50 698.50 Z" fill="url(#linear-gradient-12)" fill-rule="nonzero" group-id="8,40" id="路径_1523" node-id="127" stroke="none" target-height="120.80005" target-width="49" target-x="540.5" target-y="672.6"></path><path d="M 636.70 672.60 L 589.40 698.40 L 589.40 793.60 L 636.70 766.40 Z" fill="url(#linear-gradient-13)" fill-opacity="0.93" fill-rule="nonzero" group-id="8,41" id="路径_1524" node-id="128" stroke="none" target-height="121" target-width="47.299988" target-x="589.4" target-y="672.6"></path><path d="M 540.50 672.60 L 589.30 698.40 L 637.70 672.60 L 589.00 643.90 Z" fill="#0a1fdf" fill-rule="nonzero" group-id="8,42" id="路径_1525" node-id="129" stroke="none" target-height="54.5" target-width="97.20001" target-x="540.5" target-y="643.9"></path><path d="M 589.30 698.40 L 540.50 672.60 L 542.30 671.60 L 589.30 696.40 L 635.90 671.60 L 637.70 672.60 L 589.30 698.40 Z" fill="#ffffff" fill-opacity="0.3" fill-rule="nonzero" group-id="8,43" id="减去_2" node-id="130" stroke="none" target-height="26.800049" target-width="97.20001" target-x="540.5" target-y="671.6"></path></g></svg>