<?xml version="1.0" standalone="no"?><!DOCTYPE svg PUBLIC "-//W3C//DTD SVG 1.1//EN" "http://www.w3.org/Graphics/SVG/1.1/DTD/svg11.dtd"><svg height="1024" node-id="1" sillyvg="true" template-height="1024" template-width="1024" version="1.1" viewBox="0 0 1024 1024" width="1024" xmlns="http://www.w3.org/2000/svg" xmlns:xlink="http://www.w3.org/1999/xlink"><defs node-id="79"><linearGradient gradientUnits="objectBoundingBox" id="linear-gradient" node-id="3" spreadMethod="pad" x1="0" x2="1" y1="0.456" y2="0.456"><stop offset="0" stop-color="#dceafa"></stop><stop offset="1" stop-color="#618bde"></stop></linearGradient><linearGradient gradientUnits="objectBoundingBox" id="linear-gradient-2" node-id="6" spreadMethod="pad" x1="0" x2="1" y1="0.538" y2="0.5"><stop offset="0" stop-color="#ffffff"></stop><stop offset="1" stop-color="#bdd2ff"></stop></linearGradient><linearGradient gradientUnits="objectBoundingBox" id="linear-gradient-3" node-id="9" spreadMethod="pad" x1="0" x2="1" y1="0.563" y2="0.547"><stop offset="0" stop-color="#e5eeff"></stop><stop offset="1" stop-color="#a1c0ff"></stop></linearGradient><linearGradient gradientUnits="objectBoundingBox" id="linear-gradient-4" node-id="19" spreadMethod="pad" x1="0" x2="1" y1="0.38" y2="0.372"><stop offset="0" stop-color="#ebf3ff"></stop><stop offset="1" stop-color="#2f62f0"></stop></linearGradient><linearGradient gradientUnits="objectBoundingBox" id="linear-gradient-5" node-id="22" spreadMethod="pad" x1="0" x2="1" y1="0.5" y2="0.5"><stop offset="0" stop-color="#fafbff"></stop><stop offset="1" stop-color="#b0d3ff"></stop></linearGradient><linearGradient gradientUnits="objectBoundingBox" id="linear-gradient-6" node-id="25" spreadMethod="pad" x1="0.5" x2="0.5" y1="0" y2="1"><stop offset="0" stop-color="#9ccdfa"></stop><stop offset="1" stop-color="#5da3fd"></stop></linearGradient><linearGradient gradientUnits="objectBoundingBox" id="linear-gradient-7" node-id="35" spreadMethod="pad" x1="0" x2="1" y1="0.709" y2="0.145"><stop offset="0" stop-color="#aff0e9"></stop><stop offset="1" stop-color="#f3fcfe"></stop></linearGradient><linearGradient gradientUnits="objectBoundingBox" id="linear-gradient-8" node-id="38" spreadMethod="pad" x1="0" x2="1" y1="0.725" y2="0.209"><stop offset="0" stop-color="#a8f2e6"></stop><stop offset="1" stop-color="#0dfbd0"></stop></linearGradient><linearGradient gradientUnits="objectBoundingBox" id="linear-gradient-9" node-id="48" spreadMethod="pad" x1="0.095" x2="0.886" y1="0.125" y2="0.903"><stop offset="0" stop-color="#c1d4fa"></stop><stop offset="1" stop-color="#7aa7f9"></stop></linearGradient><linearGradient gradientUnits="objectBoundingBox" id="linear-gradient-10" node-id="51" spreadMethod="pad" x1="0.097" x2="0.888" y1="0.118" y2="0.876"><stop offset="0" stop-color="#8eb4ff"></stop><stop offset="1" stop-color="#0f56fa"></stop></linearGradient><filter height="423.51855" id="路径_1671" node-id="12" width="687.41254" x="167.14091" y="454.1306"><feOffset color-interpolation-filters="linearRGB" dx="0" dy="6" in="SourceGraphic" result="result1"></feOffset><feGaussianBlur color-interpolation-filters="linearRGB" in="result1" result="blur" stdDeviation="0 0"></feGaussianBlur><feFlood color-interpolation-filters="linearRGB" flood-color="#99bafd" result="color"></feFlood><feComposite color-interpolation-filters="linearRGB" in="SourceGraphic" in2="blur" operator="out" result="result4"></feComposite><feComposite color-interpolation-filters="linearRGB" in="color" in2="result4" operator="in" result="result5"></feComposite><feComposite color-interpolation-filters="linearRGB" in="result5" in2="SourceGraphic" operator="in" result="result6"></feComposite></filter><filter height="126.55957" id="路径_1674" node-id="28" width="208.1531" x="407.88144" y="394.74292"><feOffset color-interpolation-filters="linearRGB" dx="0" dy="6" in="SourceGraphic" result="result1"></feOffset><feGaussianBlur color-interpolation-filters="linearRGB" in="result1" result="blur-2" stdDeviation="0 0"></feGaussianBlur><feFlood color-interpolation-filters="linearRGB" flood-color="#2b7be8" result="color-2"></feFlood><feComposite color-interpolation-filters="linearRGB" in="SourceGraphic" in2="blur-2" operator="out" result="result4"></feComposite><feComposite color-interpolation-filters="linearRGB" in="color-2" in2="result4" operator="in" result="result5"></feComposite><feComposite color-interpolation-filters="linearRGB" in="result5" in2="SourceGraphic" operator="in" result="result6"></feComposite></filter><filter height="66.602936" id="路径_1676" node-id="41" width="267.56604" x="382.24335" y="120.11772"><feOffset color-interpolation-filters="linearRGB" dx="0" dy="-6" in="SourceGraphic" result="result1"></feOffset><feGaussianBlur color-interpolation-filters="linearRGB" in="result1" result="blur-3" stdDeviation="3 3"></feGaussianBlur><feFlood color-interpolation-filters="linearRGB" flood-color="#13b176" flood-opacity="0.361" result="color-3"></feFlood><feComposite color-interpolation-filters="linearRGB" in="SourceGraphic" in2="blur-3" operator="out" result="result4"></feComposite><feComposite color-interpolation-filters="linearRGB" in="color-3" in2="result4" operator="in" result="result5"></feComposite><feComposite color-interpolation-filters="linearRGB" in="result5" in2="SourceGraphic" operator="in" result="result6"></feComposite></filter><clipPath id="clip-合作商家" node-id="54"><path d="M 0.00 0.00 L 1024.00 0.00 L 1024.00 1024.00 L 0.00 1024.00 Z" fill="#000000" fill-rule="nonzero" node-id="184" stroke="none" target-height="1024" target-width="1024" target-x="0" target-y="0"></path></clipPath></defs><g clip-path="url(#clip-合作商家)" id="合作商家" node-id="56"><path d="M 0.00 0.00 L 1024.00 0.00 L 1024.00 1024.00 L 0.00 1024.00 Z" fill="#ffffff" fill-rule="nonzero" node-id="189" stroke="none" target-height="1024" target-width="1024" target-x="0" target-y="0"></path><path d="M 143.30 689.00 L 142.70 696.80 L 142.90 700.30 L 144.20 706.80 L 146.40 711.90 L 148.00 714.20 L 149.90 716.30 L 152.40 718.30 L 179.90 734.30 L 238.90 767.60 L 464.30 893.80 L 472.50 898.30 L 481.50 901.90 L 487.70 903.80 L 500.50 906.70 L 511.90 907.80 L 517.80 907.90 L 523.70 907.60 L 529.70 906.80 L 538.50 904.50 L 546.90 900.80 L 580.00 882.30 L 789.70 763.10 L 868.90 717.60 L 872.70 713.70 L 874.90 710.70 L 877.10 706.40 L 879.60 699.70 L 880.60 695.50 L 881.70 686.20 L 881.70 680.50 L 880.60 677.50 L 876.50 672.40 L 870.80 667.10 L 862.40 660.20 L 852.90 653.10 L 841.30 644.90 L 814.80 627.20 L 784.90 608.20 L 753.20 588.80 L 691.60 552.30 L 625.30 514.30 Z" fill="url(#linear-gradient)" fill-rule="nonzero" group-id="1,2" id="路径_1669" node-id="59" stroke="none" target-height="393.60004" target-width="739" target-x="142.7" target-y="514.3"></path><path d="M 151.20 658.90 L 148.10 662.30 L 145.60 665.80 L 143.80 669.50 L 142.60 673.40 L 141.90 677.20 L 141.80 681.00 L 142.20 684.80 L 143.10 688.30 L 144.40 691.60 L 146.30 694.70 L 148.50 697.40 L 151.20 699.70 L 179.00 716.10 L 277.60 771.80 L 427.00 855.30 L 479.10 883.90 L 485.60 886.10 L 497.10 888.80 L 504.00 889.80 L 511.90 890.40 L 522.60 890.10 L 528.30 889.30 L 533.80 888.10 L 539.20 886.30 L 544.70 883.90 L 577.50 865.80 L 639.10 830.90 L 870.70 698.60 L 874.50 695.00 L 877.90 690.00 L 880.50 683.80 L 881.70 677.10 L 881.60 673.60 L 881.00 670.10 L 879.80 666.60 L 876.80 661.80 L 874.60 659.40 L 871.80 657.00 L 861.80 650.50 L 842.10 638.20 L 780.80 601.10 L 661.50 529.90 L 506.50 438.00 L 354.00 531.30 L 237.40 603.40 L 178.30 640.60 L 159.90 652.70 L 151.20 658.90 Z" fill="url(#linear-gradient-2)" fill-rule="nonzero" group-id="1,3" id="路径_1670" node-id="60" stroke="none" target-height="452.40002" target-width="739.9" target-x="141.8" target-y="438"></path><path d="M 232.10 697.30 L 256.20 711.30 L 308.20 740.60 L 479.40 836.30 L 482.40 837.60 L 487.50 839.20 L 493.20 840.40 L 500.40 841.50 L 507.80 842.10 L 521.40 842.20 L 532.30 840.90 L 537.60 839.70 L 542.60 838.10 L 547.40 836.10 L 557.90 830.50 L 599.40 807.30 L 656.70 774.60 L 742.70 724.80 L 788.30 698.00 L 790.60 696.20 L 792.60 694.00 L 794.30 691.40 L 795.50 688.50 L 797.10 682.00 L 797.10 674.90 L 795.70 667.70 L 792.70 661.00 L 790.60 657.90 L 788.20 655.10 L 785.30 652.50 L 776.50 646.90 L 759.20 636.40 L 705.80 605.10 L 505.20 489.40 L 458.80 516.80 L 393.70 555.80 L 320.80 600.70 L 270.80 632.90 L 243.80 651.40 L 233.50 659.00 L 231.00 661.20 L 229.00 663.60 L 227.40 666.20 L 225.20 672.00 L 224.40 678.10 L 224.80 684.10 L 226.40 689.60 L 228.80 694.10 L 232.10 697.30 Z" fill="url(#linear-gradient-3)" fill-rule="nonzero" group-id="1,4,12" id="路径_1671-2" node-id="62" stroke="none" target-height="352.80002" target-width="572.69995" target-x="224.4" target-y="489.4"></path><path d="M 232.10 697.30 L 256.20 711.30 L 308.20 740.60 L 479.40 836.30 L 482.40 837.60 L 487.50 839.20 L 493.30 840.40 L 500.40 841.50 L 507.80 842.10 L 521.40 842.20 L 532.30 840.90 L 537.60 839.70 L 542.60 838.10 L 547.40 836.10 L 558.00 830.50 L 599.40 807.30 L 656.70 774.60 L 742.70 724.90 L 788.30 698.00 L 790.60 696.20 L 792.60 694.00 L 794.30 691.40 L 795.50 688.50 L 797.10 682.00 L 797.10 674.90 L 795.70 667.70 L 794.40 664.30 L 792.70 661.00 L 790.60 657.90 L 788.20 655.10 L 785.30 652.50 L 776.50 646.90 L 759.20 636.40 L 705.80 605.10 L 505.20 489.40 L 458.80 516.80 L 393.70 555.80 L 320.80 600.70 L 270.80 632.90 L 243.80 651.40 L 233.50 659.00 L 231.00 661.20 L 229.00 663.60 L 227.40 666.20 L 225.20 672.00 L 224.40 678.10 L 224.90 684.10 L 226.40 689.60 L 228.80 694.10 L 232.10 697.30 Z" fill="#ffffff" fill-rule="nonzero" filter="url(#路径_1671)" group-id="1,4,13,18" id="路径_1671-3" node-id="64" stroke="none" target-height="352.80002" target-width="572.69995" target-x="224.4" target-y="489.4"></path><path d="M 221.10 589.90 L 221.20 594.80 L 222.60 599.20 L 224.10 601.70 L 226.10 603.90 L 229.00 606.30 L 330.50 665.70 L 492.40 759.40 L 497.60 761.10 L 501.60 762.10 L 512.20 763.70 L 522.60 763.80 L 531.30 762.70 L 535.60 761.60 L 539.80 760.10 L 544.00 758.10 L 554.60 752.10 L 664.50 687.10 L 805.20 603.20 L 806.40 602.10 L 807.50 600.20 L 808.10 598.10 L 808.10 595.60 L 807.40 459.30 L 219.30 459.00 L 221.10 589.90 Z" fill="url(#linear-gradient-4)" fill-rule="nonzero" group-id="1,5" id="路径_1672" node-id="65" stroke="none" target-height="304.8" target-width="588.8" target-x="219.3" target-y="459"></path><path d="M 480.80 620.00 L 489.90 623.70 L 501.00 627.00 L 507.70 628.30 L 517.10 629.30 L 527.20 629.10 L 532.30 628.40 L 537.50 627.20 L 542.50 625.50 L 547.50 623.20 L 584.40 600.20 L 638.80 567.00 L 802.00 468.50 L 803.90 466.90 L 805.50 465.30 L 806.60 463.40 L 807.30 461.40 L 807.50 459.40 L 807.30 457.50 L 806.60 455.70 L 805.40 454.10 L 803.50 452.70 L 534.30 297.70 L 527.80 295.00 L 523.40 293.80 L 517.90 293.00 L 514.20 292.70 L 505.90 293.30 L 501.80 294.20 L 497.60 295.60 L 493.30 297.60 L 224.90 451.90 L 221.30 454.50 L 219.80 456.40 L 218.80 458.50 L 218.50 460.00 L 219.00 463.20 L 219.90 464.60 L 221.40 466.20 L 223.70 468.00 L 480.80 620.00 Z" fill="url(#linear-gradient-5)" fill-rule="nonzero" group-id="1,6" id="路径_1673" node-id="66" stroke="none" target-height="336.59998" target-width="589" target-x="218.5" target-y="292.7"></path><path d="M 502.80 507.80 L 507.80 509.70 L 513.80 510.70 L 517.20 510.60 L 521.70 509.20 L 597.00 460.60 L 597.80 459.90 L 598.70 457.90 L 598.30 456.00 L 597.60 455.30 L 518.60 406.80 L 516.60 406.00 L 512.50 405.30 L 508.40 406.00 L 506.40 406.80 L 427.10 455.10 L 425.80 456.30 L 425.30 458.20 L 425.60 459.10 L 426.80 460.20 L 502.80 507.80 Z" fill="url(#linear-gradient-6)" fill-rule="nonzero" group-id="1,7,14" id="路径_1674-2" node-id="68" stroke="none" target-height="105.400024" target-width="173.40002" target-x="425.3" target-y="405.3"></path><path d="M 502.80 507.80 L 507.80 509.70 L 513.80 510.70 L 517.20 510.60 L 521.70 509.20 L 597.00 460.70 L 597.80 459.90 L 598.70 457.90 L 598.30 456.00 L 597.60 455.30 L 518.60 406.80 L 516.60 406.00 L 512.50 405.30 L 508.40 406.00 L 506.40 406.80 L 427.10 455.10 L 425.80 456.30 L 425.30 458.20 L 425.60 459.10 L 426.80 460.20 L 502.80 507.80 Z" fill="#ffffff" fill-rule="nonzero" filter="url(#路径_1674)" group-id="1,7,15,19" id="路径_1674-3" node-id="70" stroke="none" target-height="105.400024" target-width="173.40002" target-x="425.3" target-y="405.3"></path><path d="M 404.90 140.10 L 399.40 142.60 L 394.70 146.20 L 392.90 148.40 L 391.50 150.80 L 390.60 153.40 L 390.20 156.30 L 390.50 159.40 L 391.40 162.40 L 392.60 165.00 L 394.00 167.20 L 395.90 169.10 L 397.90 170.60 L 400.20 171.80 L 405.40 173.00 L 408.30 173.10 L 431.60 170.50 L 606.70 148.40 L 609.10 147.80 L 611.40 146.70 L 613.60 145.10 L 615.40 143.20 L 617.00 141.00 L 618.30 138.40 L 619.20 135.70 L 619.60 132.80 L 619.60 129.70 L 619.00 126.80 L 618.10 124.20 L 616.80 122.00 L 615.20 120.00 L 611.40 117.20 L 609.20 116.30 L 604.90 115.60 L 560.40 120.30 L 477.10 130.30 L 428.30 136.50 L 404.90 140.10 Z" fill="url(#linear-gradient-7)" fill-rule="nonzero" group-id="1,8" id="路径_1675" node-id="71" stroke="none" target-height="57.500008" target-width="229.39996" target-x="390.2" target-y="115.6"></path><path d="M 418.80 149.30 L 413.50 151.70 L 408.90 155.20 L 407.20 157.30 L 405.80 159.70 L 404.90 162.20 L 404.60 164.90 L 404.80 167.90 L 405.70 170.90 L 406.80 173.40 L 408.20 175.50 L 410.00 177.30 L 412.00 178.80 L 414.30 179.90 L 419.30 181.10 L 422.10 181.20 L 444.80 178.70 L 615.00 157.30 L 617.30 156.70 L 619.50 155.70 L 621.60 154.20 L 623.40 152.30 L 624.90 150.20 L 626.20 147.70 L 627.00 145.10 L 627.50 142.30 L 627.40 139.40 L 626.90 136.50 L 626.00 134.00 L 624.70 131.90 L 623.20 130.00 L 619.50 127.30 L 617.40 126.40 L 613.10 125.70 L 569.90 130.30 L 489.00 139.90 L 441.60 145.90 L 418.80 149.30 Z" fill="url(#linear-gradient-8)" fill-rule="nonzero" group-id="1,9,16" id="路径_1676-2" node-id="73" stroke="none" target-height="55.5" target-width="222.9" target-x="404.6" target-y="125.7"></path><path d="M 418.80 149.30 L 413.50 151.70 L 408.90 155.20 L 407.20 157.30 L 405.80 159.70 L 404.90 162.20 L 404.60 164.90 L 404.80 167.90 L 405.70 170.90 L 406.80 173.40 L 408.20 175.50 L 410.00 177.30 L 412.00 178.80 L 414.30 179.90 L 419.30 181.10 L 422.10 181.20 L 444.80 178.60 L 615.00 157.30 L 617.30 156.70 L 619.50 155.70 L 621.60 154.20 L 623.40 152.30 L 624.90 150.20 L 626.20 147.70 L 627.10 145.10 L 627.50 142.30 L 627.40 139.40 L 626.90 136.50 L 626.00 134.00 L 624.70 131.90 L 623.20 130.00 L 619.50 127.30 L 617.40 126.40 L 613.10 125.70 L 569.90 130.30 L 489.00 139.90 L 441.60 145.90 L 418.80 149.30 Z" fill="#ffffff" fill-rule="nonzero" filter="url(#路径_1676)" group-id="1,9,17,20" id="路径_1676-3" node-id="75" stroke="none" target-height="55.5" target-width="222.9" target-x="404.6" target-y="125.7"></path><path d="M 386.60 420.20 L 386.60 315.90 L 418.50 310.10 L 418.60 373.90 L 419.10 376.10 L 419.80 377.80 L 422.10 380.30 L 423.60 381.00 L 426.10 381.60 L 432.00 381.70 L 576.00 362.70 L 582.10 361.10 L 584.00 360.10 L 587.10 357.40 L 588.90 353.40 L 589.30 351.00 L 589.40 288.00 L 620.10 288.00 L 635.10 295.40 L 627.40 338.20 L 622.30 369.80 L 620.60 381.80 L 620.00 392.10 L 619.60 394.80 L 618.70 397.10 L 616.20 401.20 L 612.20 404.70 L 609.70 406.10 L 605.20 407.60 L 598.60 408.50 L 404.80 432.80 L 400.10 432.70 L 397.30 432.20 L 394.60 431.40 L 392.10 430.20 L 389.20 427.80 L 388.10 426.30 L 386.80 422.60 L 386.60 420.20 Z M 377.50 302.60 L 374.20 301.00 L 371.30 299.20 L 368.90 297.10 L 366.70 294.60 L 363.40 289.20 L 361.70 284.80 L 360.60 280.50 L 360.00 276.20 L 360.10 268.80 L 360.50 266.30 L 362.50 259.60 L 384.60 189.40 L 622.10 160.60 L 635.50 170.70 L 638.20 181.90 L 640.30 195.00 L 644.60 235.60 L 644.30 242.30 L 643.50 246.80 L 642.30 251.40 L 639.00 259.80 L 634.80 266.30 L 632.20 269.30 L 629.20 272.00 L 625.60 274.60 L 621.80 276.70 L 617.40 278.50 L 612.30 279.80 L 608.20 280.40 L 604.60 280.50 L 601.30 280.00 L 598.10 279.20 L 595.30 278.00 L 592.70 276.50 L 588.00 272.60 L 583.40 266.70 L 581.30 263.00 L 579.10 258.30 L 574.80 245.60 L 572.60 252.50 L 568.70 261.60 L 565.90 266.70 L 561.30 273.30 L 555.50 279.50 L 552.20 282.10 L 548.50 284.40 L 544.60 286.20 L 540.40 287.50 L 535.60 288.20 L 528.60 288.00 L 523.00 286.50 L 519.60 284.70 L 516.70 282.60 L 514.10 280.20 L 511.90 277.50 L 508.40 271.70 L 505.30 263.60 L 503.20 255.10 L 498.60 267.20 L 496.00 273.00 L 493.10 278.40 L 490.80 281.70 L 485.60 287.60 L 482.60 290.00 L 479.10 292.10 L 475.20 293.90 L 471.10 295.10 L 466.40 295.90 L 460.90 296.20 L 456.40 295.90 L 452.50 295.00 L 449.10 293.70 L 446.00 292.00 L 443.30 289.90 L 440.90 287.60 L 438.90 285.00 L 435.70 279.60 L 432.80 271.70 L 431.30 263.10 L 427.00 276.30 L 423.00 285.60 L 420.60 290.20 L 418.70 293.00 L 416.40 295.60 L 413.60 298.00 L 410.60 300.00 L 407.20 301.70 L 403.50 303.10 L 399.60 304.20 L 395.60 304.80 L 391.30 305.00 L 386.60 304.70 L 382.00 303.90 L 377.50 302.60 Z" fill="url(#linear-gradient-9)" fill-rule="nonzero" group-id="1,10" id="联合_293" node-id="76" stroke="none" target-height="272.19998" target-width="284.59998" target-x="360" target-y="160.6"></path><path d="M 401.20 427.00 L 401.20 323.60 L 433.10 317.90 L 433.10 382.00 L 433.20 385.00 L 433.70 387.20 L 434.40 388.80 L 435.40 390.20 L 438.20 392.00 L 440.70 392.60 L 443.60 392.80 L 449.80 392.40 L 590.60 373.80 L 596.70 372.30 L 598.60 371.30 L 601.70 368.50 L 603.50 364.60 L 603.90 362.30 L 604.00 296.00 L 634.70 296.00 L 634.40 358.80 L 634.60 399.20 L 634.10 401.90 L 632.20 406.30 L 629.30 409.70 L 626.80 411.70 L 621.80 414.10 L 613.20 415.50 L 419.40 439.50 L 414.70 439.50 L 411.90 439.00 L 409.20 438.20 L 406.70 436.90 L 403.80 434.60 L 402.70 433.10 L 401.40 429.40 L 401.20 427.00 Z M 392.10 310.40 L 388.80 308.90 L 385.90 307.10 L 383.50 304.90 L 381.30 302.50 L 378.00 297.20 L 376.30 292.80 L 375.20 288.50 L 374.60 284.20 L 374.60 276.90 L 375.10 274.40 L 377.10 267.80 L 399.20 198.10 L 636.80 170.40 L 654.00 225.90 L 658.90 242.40 L 659.10 244.00 L 658.90 250.60 L 658.10 255.10 L 656.90 259.70 L 653.50 268.00 L 649.40 274.40 L 646.80 277.40 L 643.70 280.10 L 640.20 282.60 L 636.40 284.70 L 632.00 286.50 L 626.90 287.90 L 622.80 288.40 L 619.20 288.50 L 615.90 288.00 L 612.70 287.20 L 609.90 286.00 L 607.20 284.50 L 602.60 280.70 L 598.00 274.90 L 595.80 271.10 L 593.60 266.50 L 589.40 253.90 L 587.20 260.80 L 583.30 269.80 L 580.50 274.90 L 575.90 281.40 L 570.10 287.50 L 566.80 290.10 L 563.10 292.30 L 559.20 294.10 L 554.90 295.40 L 550.20 296.20 L 543.20 295.90 L 537.60 294.40 L 534.20 292.70 L 531.20 290.60 L 528.70 288.20 L 526.50 285.50 L 523.00 279.80 L 519.90 271.80 L 517.80 263.30 L 513.20 275.30 L 510.60 281.10 L 507.60 286.40 L 505.40 289.70 L 500.20 295.50 L 497.20 298.00 L 493.70 300.00 L 489.80 301.80 L 485.70 303.00 L 481.00 303.80 L 475.50 304.10 L 471.00 303.70 L 467.10 302.90 L 463.70 301.60 L 460.60 299.90 L 457.90 297.90 L 455.50 295.60 L 453.50 293.00 L 450.30 287.70 L 447.40 279.80 L 445.90 271.30 L 441.60 284.30 L 437.60 293.60 L 435.20 298.10 L 433.30 300.90 L 431.00 303.50 L 428.20 305.80 L 425.20 307.80 L 421.80 309.50 L 418.10 311.00 L 414.20 312.00 L 410.20 312.60 L 405.90 312.80 L 401.20 312.50 L 396.60 311.70 L 392.10 310.40 Z" fill="url(#linear-gradient-10)" fill-rule="nonzero" group-id="1,11" id="联合_294" node-id="77" stroke="none" target-height="269.1" target-width="284.49997" target-x="374.6" target-y="170.4"></path></g></svg>