<?xml version="1.0" standalone="no"?><!DOCTYPE svg PUBLIC "-//W3C//DTD SVG 1.1//EN" "http://www.w3.org/Graphics/SVG/1.1/DTD/svg11.dtd"><svg height="1024" node-id="1" sillyvg="true" template-height="1024" template-width="1024" version="1.1" viewBox="0 0 1024 1024" width="1024" xmlns="http://www.w3.org/2000/svg" xmlns:xlink="http://www.w3.org/1999/xlink"><defs node-id="74"><linearGradient gradientUnits="objectBoundingBox" id="linear-gradient" node-id="3" spreadMethod="pad" x1="0" x2="1" y1="0.456" y2="0.456"><stop offset="0" stop-color="#dceafa"></stop><stop offset="1" stop-color="#618bde"></stop></linearGradient><linearGradient gradientUnits="objectBoundingBox" id="linear-gradient-2" node-id="6" spreadMethod="pad" x1="0" x2="1" y1="0.538" y2="0.5"><stop offset="0" stop-color="#ffffff"></stop><stop offset="1" stop-color="#bdd2ff"></stop></linearGradient><linearGradient gradientUnits="objectBoundingBox" id="linear-gradient-3" node-id="9" spreadMethod="pad" x1="0" x2="1" y1="0.563" y2="0.547"><stop offset="0" stop-color="#e5eeff"></stop><stop offset="1" stop-color="#a1c0ff"></stop></linearGradient><linearGradient gradientUnits="objectBoundingBox" id="linear-gradient-4" node-id="19" spreadMethod="pad" x1="0" x2="1" y1="0.38" y2="0.372"><stop offset="0" stop-color="#ebf3ff"></stop><stop offset="1" stop-color="#2f62f0"></stop></linearGradient><linearGradient gradientUnits="objectBoundingBox" id="linear-gradient-5" node-id="22" spreadMethod="pad" x1="0" x2="1" y1="0.5" y2="0.5"><stop offset="0" stop-color="#fafbff"></stop><stop offset="1" stop-color="#b0d3ff"></stop></linearGradient><linearGradient gradientUnits="objectBoundingBox" id="linear-gradient-6" node-id="25" spreadMethod="pad" x1="0.5" x2="0.5" y1="0" y2="1"><stop offset="0" stop-color="#9ccdfa"></stop><stop offset="1" stop-color="#5da3fd"></stop></linearGradient><linearGradient gradientUnits="objectBoundingBox" id="linear-gradient-7" node-id="35" spreadMethod="pad" x1="0.031017387" x2="0.5553113" y1="0.0690387" y2="0.84247226"><stop offset="0" stop-color="#8eb4ff"></stop><stop offset="1" stop-color="#5287fd"></stop></linearGradient><linearGradient gradientUnits="objectBoundingBox" id="linear-gradient-8" node-id="38" spreadMethod="pad" x1="0.05703197" x2="0.90250593" y1="0.34419295" y2="0.5703197"><stop offset="0" stop-color="#6493fb"></stop><stop offset="1" stop-color="#3770f9"></stop></linearGradient><linearGradient gradientUnits="objectBoundingBox" id="linear-gradient-9" node-id="41" spreadMethod="pad" x1="0.17309703" x2="0.94753116" y1="0.32818398" y2="0.94753116"><stop offset="0" stop-color="#74a1fe"></stop><stop offset="1" stop-color="#195dfa"></stop></linearGradient><linearGradient gradientUnits="objectBoundingBox" id="linear-gradient-10" node-id="44" spreadMethod="pad" x1="0.7699999" x2="0.14999999" y1="0.042999998" y2="0.9549999"><stop offset="0" stop-color="#dbfffc"></stop><stop offset="1" stop-color="#4bf4d8"></stop></linearGradient><linearGradient gradientUnits="objectBoundingBox" id="linear-gradient-11" node-id="47" spreadMethod="pad" x1="0.048999995" x2="0.71299994" y1="0.91199994" y2="0.042999998"><stop offset="0" stop-color="#7af7e5"></stop><stop offset="1" stop-color="#04fbce"></stop></linearGradient><filter height="423.34222" id="路径_1671" node-id="12" width="687.4968" x="167.25253" y="475.53546"><feOffset color-interpolation-filters="linearRGB" dx="0" dy="6" in="SourceGraphic" result="result1"></feOffset><feGaussianBlur color-interpolation-filters="linearRGB" in="result1" result="blur" stdDeviation="0 0"></feGaussianBlur><feFlood color-interpolation-filters="linearRGB" flood-color="#99bafd" result="color"></feFlood><feComposite color-interpolation-filters="linearRGB" in="SourceGraphic" in2="blur" operator="out" result="result4"></feComposite><feComposite color-interpolation-filters="linearRGB" in="color" in2="result4" operator="in" result="result5"></feComposite><feComposite color-interpolation-filters="linearRGB" in="result5" in2="SourceGraphic" operator="in" result="result6"></feComposite></filter><filter height="126.50745" id="路径_1674" node-id="28" width="208.06815" x="408.0765" y="415.987"><feOffset color-interpolation-filters="linearRGB" dx="0" dy="6" in="SourceGraphic" result="result1"></feOffset><feGaussianBlur color-interpolation-filters="linearRGB" in="result1" result="blur-2" stdDeviation="0 0"></feGaussianBlur><feFlood color-interpolation-filters="linearRGB" flood-color="#2b7be8" result="color-2"></feFlood><feComposite color-interpolation-filters="linearRGB" in="SourceGraphic" in2="blur-2" operator="out" result="result4"></feComposite><feComposite color-interpolation-filters="linearRGB" in="color-2" in2="result4" operator="in" result="result5"></feComposite><feComposite color-interpolation-filters="linearRGB" in="result5" in2="SourceGraphic" operator="in" result="result6"></feComposite></filter><clipPath id="clip-金融数据" node-id="50"><path d="M 0.00 0.00 L 1024.00 0.00 L 1024.00 1024.00 L 0.00 1024.00 Z" fill="#000000" fill-rule="nonzero" node-id="171" stroke="none" target-height="1024" target-width="1024" target-x="0" target-y="0"></path></clipPath></defs><g clip-path="url(#clip-金融数据)" id="金融数据" node-id="52"><path d="M 0.00 0.00 L 1024.00 0.00 L 1024.00 1024.00 L 0.00 1024.00 Z" fill="#ffffff" fill-rule="nonzero" node-id="176" stroke="none" target-height="1024" target-width="1024" target-x="0" target-y="0"></path><path d="M 143.40 710.30 L 142.90 718.10 L 143.10 721.60 L 144.40 728.10 L 146.60 733.20 L 148.10 735.50 L 150.10 737.60 L 152.50 739.60 L 180.00 755.60 L 239.00 788.90 L 464.40 915.00 L 472.60 919.50 L 481.70 923.20 L 487.90 925.10 L 500.70 927.90 L 512.10 929.10 L 517.90 929.20 L 523.90 928.80 L 529.90 928.00 L 538.60 925.70 L 547.10 922.10 L 580.10 903.50 L 789.90 784.40 L 869.10 738.90 L 872.90 735.00 L 875.00 732.00 L 877.30 727.70 L 879.80 721.00 L 880.80 716.80 L 881.90 707.50 L 881.90 701.80 L 880.80 698.80 L 876.60 693.70 L 871.00 688.40 L 862.50 681.60 L 853.10 674.50 L 841.40 666.20 L 815.00 648.60 L 785.00 629.60 L 753.30 610.20 L 691.70 573.60 L 625.40 535.60 Z" fill="url(#linear-gradient)" fill-rule="nonzero" group-id="1,2" id="路径_1669" node-id="55" stroke="none" target-height="393.60004" target-width="739" target-x="142.9" target-y="535.6"></path><path d="M 151.30 680.20 L 148.20 683.60 L 145.80 687.20 L 144.00 690.80 L 142.70 694.70 L 142.10 698.50 L 141.90 702.30 L 142.30 706.10 L 143.20 709.60 L 144.60 712.90 L 146.40 716.00 L 148.70 718.70 L 151.30 721.00 L 179.20 737.40 L 277.70 793.10 L 427.10 876.50 L 479.20 905.20 L 485.80 907.40 L 497.30 910.10 L 504.20 911.10 L 512.00 911.60 L 522.80 911.30 L 528.40 910.50 L 533.90 909.30 L 539.40 907.50 L 544.80 905.20 L 577.60 887.10 L 639.30 852.10 L 870.80 719.90 L 874.70 716.30 L 878.10 711.30 L 880.70 705.10 L 881.50 701.90 L 881.90 698.40 L 881.80 694.90 L 881.10 691.50 L 879.90 688.00 L 876.90 683.10 L 871.90 678.30 L 862.00 671.80 L 842.30 659.60 L 780.90 622.50 L 661.60 551.30 L 506.70 459.50 L 354.10 552.70 L 237.60 624.70 L 178.50 661.90 L 160.00 674.00 L 151.30 680.20 Z" fill="url(#linear-gradient-2)" fill-rule="nonzero" group-id="1,3" id="路径_1670" node-id="56" stroke="none" target-height="452.09998" target-width="740" target-x="141.9" target-y="459.5"></path><path d="M 232.20 718.60 L 256.40 732.60 L 308.40 761.90 L 479.50 857.60 L 482.60 858.90 L 487.70 860.40 L 493.40 861.60 L 500.50 862.70 L 508.00 863.40 L 521.50 863.40 L 532.40 862.10 L 537.80 860.90 L 542.80 859.30 L 547.60 857.30 L 558.10 851.80 L 599.60 828.60 L 656.90 795.80 L 742.90 746.10 L 788.50 719.30 L 790.80 717.50 L 792.80 715.30 L 794.40 712.70 L 795.70 709.80 L 796.70 706.70 L 797.20 703.30 L 797.30 696.30 L 795.90 689.10 L 794.60 685.60 L 792.90 682.30 L 790.80 679.20 L 788.40 676.40 L 785.50 673.80 L 776.70 668.20 L 759.40 657.70 L 706.00 626.40 L 505.40 510.80 L 458.90 538.10 L 393.80 577.20 L 320.90 622.10 L 270.90 654.30 L 244.00 672.70 L 233.60 680.30 L 231.20 682.50 L 229.10 684.90 L 227.50 687.50 L 225.40 693.30 L 224.60 699.40 L 225.00 705.40 L 226.50 710.90 L 229.00 715.50 L 232.20 718.60 Z" fill="url(#linear-gradient-3)" fill-rule="nonzero" group-id="1,4,14" id="路径_1671-2" node-id="58" stroke="none" target-height="352.60004" target-width="572.69995" target-x="224.6" target-y="510.8"></path><path d="M 232.20 718.60 L 256.40 732.60 L 308.40 761.90 L 479.50 857.60 L 482.60 858.90 L 487.70 860.40 L 493.40 861.60 L 500.50 862.70 L 508.00 863.40 L 521.50 863.40 L 532.40 862.10 L 537.80 860.90 L 542.80 859.30 L 547.60 857.30 L 558.10 851.80 L 599.50 828.60 L 656.80 795.80 L 742.90 746.10 L 788.50 719.30 L 790.80 717.50 L 792.80 715.30 L 794.40 712.70 L 795.70 709.80 L 796.70 706.70 L 797.20 703.30 L 797.30 696.30 L 795.90 689.10 L 792.90 682.30 L 790.80 679.20 L 788.40 676.40 L 785.50 673.80 L 776.70 668.20 L 759.40 657.70 L 706.00 626.40 L 505.40 510.80 L 458.90 538.10 L 393.80 577.20 L 320.90 622.10 L 270.90 654.30 L 244.00 672.70 L 233.60 680.30 L 231.20 682.50 L 229.10 684.90 L 227.50 687.50 L 225.40 693.30 L 224.60 699.40 L 225.00 705.40 L 226.50 710.90 L 229.00 715.50 L 232.20 718.60 Z" fill="#ffffff" fill-rule="nonzero" filter="url(#路径_1671)" group-id="1,4,15,18" id="路径_1671-3" node-id="60" stroke="none" target-height="352.60004" target-width="572.69995" target-x="224.6" target-y="510.8"></path><path d="M 221.20 611.20 L 221.40 616.00 L 222.70 620.50 L 224.20 622.90 L 226.20 625.20 L 229.20 627.50 L 330.60 687.00 L 492.50 780.60 L 497.80 782.30 L 501.70 783.30 L 512.40 784.80 L 522.70 785.00 L 531.40 783.80 L 535.70 782.80 L 540.00 781.30 L 544.10 779.30 L 554.80 773.20 L 664.70 708.30 L 805.40 624.40 L 806.60 623.30 L 807.70 621.50 L 808.20 619.30 L 808.30 616.90 L 807.60 480.60 L 219.40 480.30 L 221.20 611.20 Z" fill="url(#linear-gradient-4)" fill-rule="nonzero" group-id="1,5" id="路径_1672" node-id="61" stroke="none" target-height="304.7" target-width="588.9" target-x="219.4" target-y="480.3"></path><path d="M 481.00 641.10 L 490.10 644.90 L 501.20 648.10 L 507.80 649.50 L 517.20 650.40 L 527.30 650.20 L 532.40 649.50 L 537.60 648.30 L 542.70 646.60 L 547.70 644.30 L 584.60 621.40 L 639.00 588.20 L 802.20 489.70 L 804.10 488.10 L 805.60 486.50 L 806.80 484.60 L 807.50 482.60 L 807.70 480.60 L 807.50 478.70 L 806.80 476.90 L 805.60 475.30 L 803.70 473.90 L 534.50 318.90 L 528.00 316.20 L 523.50 315.10 L 518.10 314.20 L 514.30 314.00 L 506.10 314.60 L 502.00 315.50 L 497.70 316.90 L 493.50 318.90 L 225.10 473.10 L 221.40 475.70 L 219.90 477.60 L 218.90 479.70 L 218.60 481.20 L 219.10 484.40 L 220.00 485.80 L 221.50 487.40 L 223.80 489.20 L 481.00 641.10 Z" fill="url(#linear-gradient-5)" fill-rule="nonzero" group-id="1,6" id="路径_1673" node-id="62" stroke="none" target-height="336.40002" target-width="589.1" target-x="218.6" target-y="314"></path><path d="M 502.90 529.00 L 507.90 530.90 L 514.00 531.90 L 517.40 531.80 L 521.80 530.40 L 597.10 481.90 L 597.90 481.10 L 598.80 479.10 L 598.40 477.20 L 597.70 476.50 L 518.70 428.00 L 516.70 427.20 L 512.70 426.50 L 508.60 427.20 L 506.60 428.00 L 427.30 476.40 L 425.90 477.60 L 425.40 479.40 L 425.80 480.30 L 427.00 481.40 L 502.90 529.00 Z" fill="url(#linear-gradient-6)" fill-rule="nonzero" group-id="1,7,16" id="路径_1674-2" node-id="64" stroke="none" target-height="105.400024" target-width="173.4" target-x="425.4" target-y="426.5"></path><path d="M 502.90 529.00 L 507.90 530.90 L 514.00 531.90 L 517.40 531.80 L 521.80 530.40 L 597.10 481.90 L 597.90 481.10 L 598.80 479.10 L 598.40 477.20 L 597.70 476.50 L 518.70 428.10 L 516.70 427.20 L 512.70 426.50 L 508.60 427.20 L 506.60 428.10 L 427.30 476.40 L 425.90 477.60 L 425.40 479.40 L 425.80 480.30 L 427.00 481.40 L 502.90 529.00 Z" fill="#ffffff" fill-rule="nonzero" filter="url(#路径_1674)" group-id="1,7,17,19" id="路径_1674-3" node-id="66" stroke="none" target-height="105.400024" target-width="173.4" target-x="425.4" target-y="426.5"></path><path d="M 596.70 145.80 L 604.10 149.20 L 611.10 152.90 L 617.70 156.90 L 624.10 161.30 L 630.20 166.00 L 636.00 171.10 L 641.50 176.40 L 646.70 182.00 L 651.50 187.90 L 656.00 194.10 L 661.20 202.10 L 665.90 210.40 L 670.00 219.00 L 673.60 228.00 L 676.70 237.10 L 679.10 246.50 L 681.00 256.10 L 682.30 265.90 L 683.00 275.70 L 683.00 285.60 L 682.50 295.70 L 681.30 305.80 L 679.80 313.80 L 678.00 321.80 L 675.70 329.90 L 673.00 337.90 L 669.90 345.90 L 666.30 353.80 L 662.40 361.30 L 658.20 368.50 L 653.70 375.40 L 648.90 382.00 L 642.40 389.90 L 635.60 397.30 L 628.40 404.10 L 620.90 410.50 L 612.90 416.40 L 604.70 421.70 L 596.30 426.40 L 587.60 430.60 L 578.70 434.20 L 569.60 437.20 L 560.40 439.70 L 551.00 441.50 L 543.40 442.50 L 535.80 443.10 L 528.20 443.20 L 520.60 443.00 L 512.90 442.30 L 505.30 441.20 L 497.70 439.70 L 490.10 437.70 L 482.60 435.30 L 475.10 432.30 L 467.20 428.70 L 459.80 424.70 L 452.70 420.30 L 445.90 415.50 L 439.50 410.30 L 433.40 404.70 L 427.70 398.90 L 422.30 392.70 L 417.30 386.20 L 412.70 379.50 L 408.50 372.40 L 404.60 365.20 L 401.20 357.70 L 398.20 350.10 L 395.50 342.10 L 393.30 334.10 L 391.50 326.00 L 390.20 317.70 L 389.30 309.30 L 388.80 300.70 L 535.90 290.20 L 535.90 135.00 L 543.70 134.90 L 551.50 135.10 L 559.20 135.80 L 566.90 136.90 L 574.50 138.50 L 582.00 140.50 L 589.40 142.90 L 596.70 145.80 Z" fill="#cbdcfd" fill-rule="nonzero" group-id="1,8" id="路径_1685" node-id="67" stroke="none" target-height="308.30002" target-width="294.2" target-x="388.8" target-y="134.9"></path><path d="M 609.00 154.80 L 616.90 158.40 L 624.40 162.40 L 631.50 166.90 L 638.20 171.60 L 644.70 176.80 L 650.80 182.40 L 656.50 188.30 L 661.90 194.50 L 666.90 201.00 L 671.50 207.80 L 675.70 214.80 L 679.60 222.10 L 683.00 229.50 L 686.00 237.20 L 688.70 245.20 L 690.90 253.20 L 692.60 261.40 L 694.00 269.70 L 694.90 278.20 L 695.30 286.80 L 548.50 300.20 L 548.20 144.00 L 556.00 143.80 L 563.80 144.10 L 571.50 144.80 L 579.20 145.90 L 586.80 147.50 L 594.30 149.50 L 601.70 151.90 L 609.00 154.80 Z" fill="url(#linear-gradient-7)" fill-rule="nonzero" group-id="1,9" id="路径_1682" node-id="68" stroke="none" target-height="156.40001" target-width="147.09998" target-x="548.2" target-y="143.8"></path><path d="M 695.30 285.70 L 695.30 294.60 L 694.80 303.50 L 693.90 312.20 L 692.50 321.00 L 690.60 329.60 L 688.30 338.10 L 685.40 346.50 L 682.20 354.80 L 678.20 363.40 L 673.90 371.60 L 669.20 379.40 L 664.20 386.80 L 658.70 394.00 L 653.00 400.80 L 646.90 407.10 L 640.60 413.10 L 633.90 418.70 L 627.00 423.90 L 619.90 428.70 L 612.60 433.10 L 605.00 437.00 L 597.30 440.50 L 589.50 443.60 L 581.50 446.20 L 573.30 448.40 L 565.10 450.00 L 556.80 451.20 L 548.40 451.90 L 548.30 451.30 L 547.90 435.80 L 547.80 397.80 L 548.10 299.10 L 695.30 285.70 Z" fill="url(#linear-gradient-8)" fill-rule="nonzero" group-id="1,10" id="路径_1683" node-id="69" stroke="none" target-height="166.19998" target-width="147.5" target-x="547.8" target-y="285.7"></path><path d="M 549.00 452.20 L 541.20 452.50 L 533.50 452.30 L 525.80 451.60 L 518.10 450.50 L 510.50 448.90 L 502.90 446.80 L 495.30 444.30 L 487.50 441.20 L 479.60 437.60 L 472.20 433.50 L 465.10 429.10 L 458.30 424.30 L 451.90 419.20 L 445.80 413.60 L 440.10 407.70 L 434.70 401.60 L 429.70 395.10 L 425.10 388.30 L 420.90 381.30 L 417.00 374.10 L 413.60 366.60 L 410.60 358.90 L 407.90 351.00 L 405.70 343.00 L 404.00 334.80 L 402.60 326.60 L 401.70 318.10 L 401.20 309.50 L 549.30 299.00 L 548.50 419.10 L 548.70 447.90 L 549.00 452.20 Z" fill="url(#linear-gradient-9)" fill-rule="nonzero" group-id="1,11" id="路径_1684" node-id="70" stroke="none" target-height="153.5" target-width="148.09998" target-x="401.2" target-y="299"></path><path d="M 487.40 115.50 L 478.70 117.30 L 470.20 119.70 L 461.70 122.60 L 453.30 126.10 L 445.20 130.10 L 437.20 134.60 L 429.50 139.60 L 422.00 145.20 L 414.80 151.10 L 407.90 157.40 L 401.40 164.10 L 395.20 171.20 L 389.40 178.70 L 384.00 186.50 L 379.10 194.60 L 374.70 203.10 L 370.70 211.70 L 367.30 220.70 L 364.50 229.80 L 362.20 239.30 L 360.80 246.90 L 359.90 254.60 L 359.40 262.50 L 359.30 270.40 L 359.60 278.60 L 377.20 289.80 L 508.50 265.00 L 521.30 126.00 L 507.90 114.10 L 501.10 114.20 L 487.40 115.50 Z" fill="url(#linear-gradient-10)" fill-rule="nonzero" group-id="1,12" id="路径_1681" node-id="71" stroke="none" target-height="175.69998" target-width="162" target-x="359.3" target-y="114.1"></path><path d="M 500.90 126.70 L 492.20 128.50 L 483.70 130.90 L 475.30 133.80 L 467.10 137.40 L 459.00 141.40 L 451.30 145.90 L 443.70 150.90 L 436.40 156.40 L 429.40 162.30 L 422.80 168.60 L 416.50 175.40 L 410.50 182.50 L 405.00 190.00 L 399.80 197.80 L 395.20 205.90 L 390.90 214.40 L 387.20 223.00 L 384.00 232.00 L 381.30 241.10 L 379.10 250.60 L 377.90 258.20 L 377.00 265.90 L 376.50 273.80 L 376.40 281.80 L 376.80 289.90 L 378.30 290.30 L 387.20 290.10 L 414.50 287.90 L 461.50 283.10 L 517.00 276.90 L 522.00 276.30 L 521.40 125.40 L 507.70 125.90 L 500.90 126.70 Z" fill="url(#linear-gradient-11)" fill-rule="nonzero" group-id="1,13" id="路径_1686" node-id="72" stroke="none" target-height="164.9" target-width="145.6" target-x="376.4" target-y="125.4"></path></g></svg>