<?xml version="1.0" standalone="no"?><!DOCTYPE svg PUBLIC "-//W3C//DTD SVG 1.1//EN" "http://www.w3.org/Graphics/SVG/1.1/DTD/svg11.dtd"><svg height="1024" node-id="1" sillyvg="true" template-height="1024" template-width="1024" version="1.1" viewBox="0 0 1024 1024" width="1024" xmlns="http://www.w3.org/2000/svg" xmlns:xlink="http://www.w3.org/1999/xlink"><defs node-id="161"><linearGradient gradientUnits="objectBoundingBox" id="linear-gradient" node-id="3" spreadMethod="pad" x1="0.023" x2="1" y1="0.678" y2="0.417"><stop offset="0" stop-color="#6ca4fb"></stop><stop offset="1" stop-color="#84a6ff"></stop></linearGradient><linearGradient gradientUnits="objectBoundingBox" id="linear-gradient-2" node-id="6" spreadMethod="pad" x1="0.131" x2="0.964" y1="0.85" y2="0.265"><stop offset="0" stop-color="#d5e1fd"></stop><stop offset="1" stop-color="#95b1fe"></stop></linearGradient><linearGradient gradientUnits="objectBoundingBox" id="linear-gradient-3" node-id="9" spreadMethod="pad" x1="-0.032" x2="1.015" y1="0.537" y2="0.426"><stop offset="0" stop-color="#82aaff"></stop><stop offset="0.257" stop-color="#4a86ff"></stop><stop offset="0.341" stop-color="#3d7eff"></stop><stop offset="1" stop-color="#4983fe"></stop></linearGradient><linearGradient gradientUnits="objectBoundingBox" id="linear-gradient-4" node-id="20" spreadMethod="pad" x1="0.5" x2="0.5" y1="0" y2="1"><stop offset="0" stop-color="#b6cdff"></stop><stop offset="1" stop-color="#427efc"></stop></linearGradient><linearGradient gradientUnits="objectBoundingBox" id="linear-gradient-5" node-id="23" spreadMethod="pad" x1="0.5" x2="0.5" y1="0" y2="1"><stop offset="0" stop-color="#bdd1ff"></stop><stop offset="1" stop-color="#3b78f9"></stop></linearGradient><linearGradient gradientUnits="objectBoundingBox" id="linear-gradient-6" node-id="32" spreadMethod="pad" x1="0.5" x2="0.5" y1="0" y2="1"><stop offset="0" stop-color="#a9c4fe"></stop><stop offset="1" stop-color="#5a91fe"></stop></linearGradient><linearGradient gradientUnits="objectBoundingBox" id="linear-gradient-7" node-id="35" spreadMethod="pad" x1="0.5" x2="0.5" y1="0" y2="1"><stop offset="0" stop-color="#a6c2fe"></stop><stop offset="1" stop-color="#5a93ff"></stop></linearGradient><linearGradient gradientUnits="objectBoundingBox" id="linear-gradient-8" node-id="44" spreadMethod="pad" x1="0.5" x2="0.5" y1="0" y2="1"><stop offset="0" stop-color="#a9c4fe"></stop><stop offset="1" stop-color="#4b82fe"></stop></linearGradient><linearGradient gradientUnits="objectBoundingBox" id="linear-gradient-9" node-id="47" spreadMethod="pad" x1="0.5" x2="0.5" y1="0" y2="1"><stop offset="0" stop-color="#a1befe"></stop><stop offset="1" stop-color="#4e84ff"></stop></linearGradient><linearGradient gradientUnits="objectBoundingBox" id="linear-gradient-10" node-id="50" spreadMethod="pad" x1="0" x2="1" y1="0.633" y2="0.256"><stop offset="0" stop-color="#b5f6e7"></stop><stop offset="1" stop-color="#7fe7cf"></stop></linearGradient><linearGradient gradientUnits="objectBoundingBox" id="linear-gradient-11" node-id="53" spreadMethod="pad" x1="0" x2="0.944" y1="0.346" y2="0.664"><stop offset="0" stop-color="#50ecc8"></stop><stop offset="1" stop-color="#b2f5e6"></stop></linearGradient><linearGradient gradientUnits="objectBoundingBox" id="linear-gradient-12" node-id="56" spreadMethod="pad" x1="0.0029993774" x2="0.99679303" y1="0.46290392" y2="0.51289356"><stop offset="0" stop-color="#81a4ff"></stop><stop offset="1" stop-color="#4883f0"></stop></linearGradient><linearGradient gradientUnits="objectBoundingBox" id="linear-gradient-13" node-id="59" spreadMethod="pad" x1="0.016996473" x2="1.0047914" y1="0.47190204" y2="0.50989413"><stop offset="0" stop-color="#cfddfc"></stop><stop offset="1" stop-color="#99b6ff"></stop></linearGradient><linearGradient gradientUnits="objectBoundingBox" id="linear-gradient-14" node-id="62" spreadMethod="pad" x1="-0.001999585" x2="1.0247872" y1="0.4379091" y2="0.53688854"><stop offset="0" stop-color="#9db8fd"></stop><stop offset="1" stop-color="#7ea3ff"></stop></linearGradient><linearGradient gradientUnits="objectBoundingBox" id="linear-gradient-15" node-id="65" spreadMethod="pad" x1="0.075984225" x2="1.0227877" y1="0.32993153" y2="0.48989832"><stop offset="0" stop-color="#9fbaff"></stop><stop offset="1" stop-color="#92b1ff"></stop></linearGradient><linearGradient gradientUnits="objectBoundingBox" id="linear-gradient-16" node-id="68" spreadMethod="pad" x1="0.5" x2="0.448" y1="0.07" y2="0.982"><stop offset="0" stop-color="#8eaff9"></stop><stop offset="1" stop-color="#648fff"></stop></linearGradient><linearGradient gradientUnits="objectBoundingBox" id="linear-gradient-17" node-id="71" spreadMethod="pad" x1="0.039" x2="0.945" y1="0.68" y2="0.276"><stop offset="0" stop-color="#f1f1f2"></stop><stop offset="1" stop-color="#c1d4ff"></stop></linearGradient><linearGradient gradientUnits="objectBoundingBox" id="linear-gradient-18" node-id="74" spreadMethod="pad" x1="0.5" x2="0.5" y1="0" y2="1"><stop offset="0" stop-color="#89abff"></stop><stop offset="1" stop-color="#5887fd"></stop></linearGradient><linearGradient gradientUnits="objectBoundingBox" id="linear-gradient-19" node-id="77" spreadMethod="pad" x1="0.773" x2="0.738" y1="0.095" y2="0.893"><stop offset="0" stop-color="#bad1ff"></stop><stop offset="1" stop-color="#85a8ff"></stop></linearGradient><filter height="211.38702" id="路径_1513" node-id="14" width="65.66699" x="787.71" y="465.149"><feOffset color-interpolation-filters="linearRGB" dx="0" dy="3" in="SourceGraphic" result="result1"></feOffset><feGaussianBlur color-interpolation-filters="linearRGB" in="result1" result="blur" stdDeviation="3 3"></feGaussianBlur><feFlood color-interpolation-filters="linearRGB" flood-color="#000000" flood-opacity="0.141" result="result3"></feFlood><feComposite color-interpolation-filters="linearRGB" in="result3" in2="blur" operator="in" result="result4"></feComposite><feComposite color-interpolation-filters="linearRGB" in="SourceGraphic" in2="result4" operator="over" result="result5"></feComposite></filter><filter height="171.445" id="路径_1513-2" node-id="26" width="65.37903" x="710.015" y="548.149"><feOffset color-interpolation-filters="linearRGB" dx="0" dy="3" in="SourceGraphic" result="result1"></feOffset><feGaussianBlur color-interpolation-filters="linearRGB" in="result1" result="blur-2" stdDeviation="3 3"></feGaussianBlur><feFlood color-interpolation-filters="linearRGB" flood-color="#000000" flood-opacity="0.141" result="result3"></feFlood><feComposite color-interpolation-filters="linearRGB" in="result3" in2="blur-2" operator="in" result="result4"></feComposite><feComposite color-interpolation-filters="linearRGB" in="SourceGraphic" in2="result4" operator="over" result="result5"></feComposite></filter><filter height="134.445" id="路径_1513-3" node-id="38" width="65.37903" x="630.651" y="637.149"><feOffset color-interpolation-filters="linearRGB" dx="0" dy="3" in="SourceGraphic" result="result1"></feOffset><feGaussianBlur color-interpolation-filters="linearRGB" in="result1" result="blur-3" stdDeviation="3 3"></feGaussianBlur><feFlood color-interpolation-filters="linearRGB" flood-color="#000000" flood-opacity="0.141" result="result3"></feFlood><feComposite color-interpolation-filters="linearRGB" in="result3" in2="blur-3" operator="in" result="result4"></feComposite><feComposite color-interpolation-filters="linearRGB" in="SourceGraphic" in2="result4" operator="over" result="result5"></feComposite></filter><clipPath id="clip-荣誉资质" node-id="80"><path d="M 0.00 0.00 L 1024.00 0.00 L 1024.00 1024.00 L 0.00 1024.00 Z" fill="#000000" fill-rule="nonzero" node-id="318" stroke="none" target-height="1024" target-width="1024" target-x="0" target-y="0"></path></clipPath></defs><g clip-path="url(#clip-荣誉资质)" id="荣誉资质" node-id="82"><path d="M 0.00 0.00 L 1024.00 0.00 L 1024.00 1024.00 L 0.00 1024.00 Z" fill="#ffffff" fill-rule="nonzero" node-id="323" stroke="none" target-height="1024" target-width="1024" target-x="0" target-y="0"></path><path d="M 170.70 634.00 L 158.90 634.90 L 147.40 636.70 L 141.20 638.10 L 131.00 641.30 L 123.80 644.80 L 120.60 647.00 L 118.00 649.30 L 115.90 651.90 L 112.30 658.80 L 108.60 669.20 L 105.60 682.00 L 103.70 696.30 L 103.20 704.10 L 103.20 712.00 L 103.60 720.00 L 104.50 728.10 L 105.50 734.20 L 108.70 746.10 L 110.80 752.00 L 113.30 757.70 L 116.20 763.20 L 119.60 768.50 L 123.50 773.70 L 128.40 779.20 L 134.10 784.90 L 140.50 790.70 L 154.20 801.70 L 173.10 815.10 L 196.60 829.70 L 228.10 847.40 L 273.40 871.30 L 291.80 879.90 L 302.40 884.40 L 314.10 888.90 L 326.20 893.20 L 347.80 899.50 L 365.70 903.40 L 374.80 904.80 L 383.90 905.80 L 393.00 906.40 L 411.60 906.90 L 428.20 907.10 L 444.30 906.80 L 458.80 906.10 L 473.00 905.00 L 486.30 903.30 L 499.30 901.00 L 512.00 898.20 L 524.60 894.70 L 537.50 890.60 L 543.10 888.30 L 553.00 883.60 L 578.30 870.20 L 611.60 851.70 L 650.90 829.30 L 739.80 777.30 L 829.60 723.90 L 904.80 678.60 L 956.60 646.70 L 957.00 642.70 L 957.10 634.10 L 956.60 600.90 L 542.90 420.60 Z" fill="url(#linear-gradient)" fill-rule="nonzero" group-id="1,6" id="路径_1469" node-id="85" stroke="none" target-height="486.49997" target-width="853.89996" target-x="103.2" target-y="420.6"></path><path d="M 170.70 585.80 L 160.90 592.40 L 146.00 603.60 L 135.50 612.60 L 130.80 617.10 L 126.60 621.60 L 123.50 625.80 L 117.40 636.20 L 114.30 642.70 L 111.30 650.30 L 108.10 661.10 L 107.00 667.10 L 106.30 673.10 L 106.10 679.30 L 106.40 685.80 L 108.00 695.50 L 111.30 705.60 L 113.50 710.50 L 116.30 715.50 L 119.60 720.50 L 123.50 725.70 L 128.40 731.20 L 134.00 736.90 L 140.40 742.70 L 154.10 753.70 L 161.60 759.20 L 173.10 767.10 L 184.80 774.60 L 207.70 788.20 L 228.10 799.40 L 273.30 823.30 L 291.80 831.90 L 302.30 836.40 L 314.00 840.90 L 326.20 845.20 L 347.80 851.50 L 365.70 855.40 L 374.80 856.80 L 383.90 857.80 L 392.90 858.40 L 411.60 858.90 L 428.20 859.10 L 444.20 858.80 L 458.80 858.10 L 473.00 857.00 L 486.20 855.30 L 499.30 853.00 L 512.00 850.20 L 524.60 846.70 L 537.40 842.60 L 543.10 840.30 L 552.80 835.70 L 563.70 830.20 L 610.80 804.70 L 692.30 758.40 L 825.90 680.50 L 952.50 605.60 L 955.50 603.20 L 956.10 602.20 L 956.30 600.00 L 955.80 599.10 L 954.70 598.00 L 952.50 596.80 L 924.20 581.60 L 542.90 372.60 Z" fill="url(#linear-gradient-2)" fill-rule="nonzero" group-id="1,7" id="路径_1470" node-id="86" stroke="none" target-height="486.49997" target-width="850.2" target-x="106.1" target-y="372.6"></path><path d="M 172.70 579.00 L 162.90 585.60 L 148.00 596.70 L 137.50 605.60 L 132.90 610.10 L 128.70 614.60 L 125.50 618.80 L 122.70 623.30 L 119.40 629.20 L 116.30 635.70 L 113.30 643.30 L 110.20 654.10 L 109.10 660.10 L 108.40 666.10 L 108.20 672.30 L 108.50 678.80 L 110.10 688.50 L 113.40 698.60 L 115.60 703.50 L 118.30 708.50 L 121.60 713.50 L 125.50 718.70 L 130.40 724.20 L 136.10 729.90 L 142.50 735.70 L 156.20 746.70 L 175.10 760.10 L 186.80 767.60 L 209.70 781.20 L 261.80 809.20 L 275.40 816.30 L 293.80 824.90 L 316.10 833.90 L 328.20 838.20 L 349.80 844.50 L 367.70 848.40 L 376.80 849.80 L 385.90 850.80 L 395.00 851.40 L 413.60 851.90 L 430.20 852.10 L 446.30 851.80 L 460.80 851.10 L 475.00 850.00 L 488.30 848.30 L 501.30 846.00 L 514.00 843.20 L 526.60 839.70 L 539.50 835.60 L 545.10 833.30 L 554.80 828.80 L 579.80 815.90 L 612.50 798.20 L 651.10 776.70 L 738.30 727.20 L 826.40 676.20 L 952.30 602.60 L 954.60 600.90 L 955.50 599.70 L 956.10 598.60 L 956.20 597.30 L 955.60 596.00 L 954.50 594.90 L 952.30 593.60 L 924.10 578.10 L 544.90 365.60 Z" fill="url(#linear-gradient-3)" fill-rule="nonzero" group-id="1,8" id="路径_1471" node-id="87" stroke="none" target-height="486.49997" target-width="848" target-x="108.2" target-y="365.6"></path><path d="M 241.80 602.90 L 284.20 579.60 L 527.80 727.80 L 490.30 747.30 Z" fill="#f0f5ff" fill-rule="nonzero" group-id="2,9,36" id="路径_1509" node-id="90" stroke="none" target-height="167.70001" target-width="286" target-x="241.8" target-y="579.6"></path><path d="M 241.80 642.70 L 490.10 786.70 L 490.10 747.00 L 241.70 602.70 Z" fill="#faffff" fill-rule="nonzero" group-id="2,9,37" id="路径_1510" node-id="91" stroke="none" target-height="184" target-width="248.40001" target-x="241.7" target-y="602.7"></path><path d="M 324.10 650.80 L 324.10 690.60 L 395.00 731.70 L 395.20 692.20 Z" fill="#e6edfb" fill-rule="nonzero" group-id="2,9" id="路径_1526" node-id="92" stroke="none" target-height="80.900024" target-width="71.100006" target-x="324.1" target-y="650.8"></path><path d="M 352.40 636.30 L 424.10 677.00 L 395.10 692.50 L 323.80 650.80 Z" fill="#d9e2f9" fill-rule="nonzero" group-id="2,9" id="路径_1527" node-id="93" stroke="none" target-height="56.200012" target-width="100.30002" target-x="323.8" target-y="636.3"></path><path d="M 269.80 548.90 L 335.50 510.60 L 580.40 658.40 L 518.30 693.30 Z" fill="#f0f5ff" fill-rule="nonzero" group-id="2,10,38" id="路径_1509-2" node-id="95" stroke="none" target-height="182.69998" target-width="310.60004" target-x="269.8" target-y="510.6"></path><path d="M 269.80 588.70 L 518.10 730.90 L 518.30 692.80 L 269.90 548.50 Z" fill="#faffff" fill-rule="nonzero" group-id="2,10,39" id="路径_1510-2" node-id="96" stroke="none" target-height="182.40002" target-width="248.5" target-x="269.8" target-y="548.5"></path><path d="M 352.10 596.80 L 352.10 636.60 L 423.90 677.00 L 423.20 638.20 Z" fill="#e6edfb" fill-rule="nonzero" group-id="2,10" id="路径_1526-2" node-id="97" stroke="none" target-height="80.20001" target-width="71.79999" target-x="352.1" target-y="596.8"></path><path d="M 395.90 570.50 L 466.90 611.50 L 423.30 638.50 L 352.10 596.80 Z" fill="#d9e2f9" fill-rule="nonzero" group-id="2,10,40" id="路径_1527-2" node-id="98" stroke="none" target-height="68" target-width="114.79999" target-x="352.1" target-y="570.5"></path><path d="M 315.80 484.90 L 547.60 354.40 L 793.30 495.60 L 564.30 629.30 Z" fill="#f0f5ff" fill-rule="nonzero" group-id="2,11,41" id="路径_1509-3" node-id="100" stroke="none" target-height="274.9" target-width="477.5" target-x="315.8" target-y="354.4"></path><path d="M 315.80 524.70 L 565.40 667.90 L 565.40 629.80 L 315.80 484.60 Z" fill="#faffff" fill-rule="nonzero" group-id="2,11,42" id="路径_1510-3" node-id="101" stroke="none" target-height="183.30002" target-width="249.60004" target-x="315.8" target-y="484.6"></path><path d="M 396.10 530.80 L 396.10 570.70 L 467.00 611.70 L 467.20 572.20 Z" fill="#e6edfb" fill-rule="nonzero" group-id="2,11,43" id="路径_1526-3" node-id="102" stroke="none" target-height="80.900024" target-width="71.100006" target-x="396.1" target-y="530.8"></path><path d="M 487.60 480.70 L 553.40 524.90 L 466.90 573.10 L 396.00 530.80 Z" fill="#d9e2f9" fill-rule="nonzero" group-id="2,11" id="路径_1527-3" node-id="103" stroke="none" target-height="92.39996" target-width="157.40002" target-x="396" target-y="480.7"></path><path d="M 490.10 747.00 L 490.00 787.30 L 794.60 608.50 L 792.90 495.10 L 564.40 629.10 L 564.40 665.90 L 517.60 692.20 L 517.60 731.30 Z" fill="#d9e5f6" fill-rule="nonzero" group-id="2,12" id="路径_1511" node-id="104" stroke="none" target-height="292.19998" target-width="304.59998" target-x="490" target-y="495.1"></path><path d="M 324.10 690.50 L 256.80 729.60 L 328.40 771.70 L 395.00 731.70 Z" fill="#86abfd" fill-rule="nonzero" group-id="2" id="路径_1528" node-id="105" stroke="none" target-height="81.20001" target-width="138.20001" target-x="256.8" target-y="690.5"></path><path d="M 747.90 471.10 L 748.00 637.10 L 797.00 664.90 L 796.90 497.00 Z" fill="#1745fe" fill-opacity="0.4462" fill-rule="nonzero" group-id="3,13,44" id="路径_1512" node-id="108" stroke="none" target-height="193.80002" target-width="49.099976" target-x="747.9" target-y="471.1"></path><path d="M 844.10 471.10 L 796.70 496.90 L 797.00 664.50 L 844.40 637.40 Z" fill="#1745fe" fill-opacity="0.4462" fill-rule="nonzero" filter="url(#路径_1513)" group-id="3,13,45,69" id="路径_1513-4" node-id="110" stroke="none" target-height="193.4" target-width="47.700012" target-x="796.7" target-y="471.1"></path><path d="M 747.90 471.10 L 796.60 496.90 L 845.10 471.10 L 796.40 442.40 Z" fill="#1745fe" fill-opacity="0.4462" fill-rule="nonzero" group-id="3,13,46" id="路径_1514" node-id="111" stroke="none" target-height="54.5" target-width="97.19995" target-x="747.9" target-y="442.4"></path><path d="M 747.90 471.10 L 747.90 637.20 L 796.90 665.00 L 796.90 497.00 Z" fill="url(#linear-gradient-4)" fill-opacity="0.9021" fill-rule="nonzero" group-id="3,13,47" id="路径_1516" node-id="112" stroke="none" target-height="193.9" target-width="49" target-x="747.9" target-y="471.1"></path><path d="M 845.10 471.00 L 796.70 496.90 L 796.80 664.90 L 845.10 637.60 Z" fill="url(#linear-gradient-5)" fill-opacity="0.8245" fill-rule="nonzero" group-id="3,13,48" id="路径_1517" node-id="113" stroke="none" target-height="193.90002" target-width="48.399963" target-x="796.7" target-y="471"></path><path d="M 747.90 471.10 L 796.60 496.90 L 845.10 471.10 L 796.60 441.90 Z" fill="#c6d9ff" fill-opacity="0.9021" fill-rule="nonzero" group-id="3,13,49" id="路径_1518" node-id="114" stroke="none" target-height="55" target-width="97.19995" target-x="747.9" target-y="441.9"></path><path d="M 796.60 496.90 L 747.90 471.10 L 749.70 470.10 L 796.60 494.90 L 843.30 470.10 L 845.10 471.10 L 796.60 496.90 Z" fill="#ffffff" fill-opacity="0.4171" fill-rule="nonzero" group-id="3,13,50" id="减去_1" node-id="115" stroke="none" target-height="26.799988" target-width="97.19995" target-x="747.9" target-y="470.1"></path><path d="M 670.20 554.10 L 670.20 679.80 L 719.20 707.60 L 719.20 580.00 Z" fill="#1745fe" fill-opacity="0.4462" fill-rule="nonzero" group-id="3,14,51" id="路径_1512-2" node-id="117" stroke="none" target-height="153.5" target-width="49" target-x="670.2" target-y="554.1"></path><path d="M 766.40 554.10 L 719.00 579.90 L 719.00 707.60 L 766.40 680.40 Z" fill="#1745fe" fill-opacity="0.4462" fill-rule="nonzero" filter="url(#路径_1513-2)" group-id="3,14,52,70" id="路径_1513-5" node-id="119" stroke="none" target-height="153.5" target-width="47.400024" target-x="719" target-y="554.1"></path><path d="M 670.20 554.10 L 718.90 579.90 L 767.40 554.10 L 718.70 525.40 Z" fill="#1745fe" fill-opacity="0.4462" fill-rule="nonzero" group-id="3,14,53" id="路径_1514-2" node-id="120" stroke="none" target-height="54.5" target-width="97.20001" target-x="670.2" target-y="525.4"></path><path d="M 670.20 554.10 L 670.20 679.80 L 719.20 707.60 L 719.20 580.00 Z" fill="url(#linear-gradient-6)" fill-opacity="0.8245" fill-rule="nonzero" group-id="3,14,54" id="路径_1516-2" node-id="121" stroke="none" target-height="153.5" target-width="49" target-x="670.2" target-y="554.1"></path><path d="M 766.40 554.10 L 719.00 579.90 L 719.00 707.60 L 766.40 680.40 Z" fill="url(#linear-gradient-7)" fill-opacity="0.97" fill-rule="nonzero" group-id="3,14,55" id="路径_1517-2" node-id="122" stroke="none" target-height="153.5" target-width="47.400024" target-x="719" target-y="554.1"></path><path d="M 670.20 554.10 L 718.90 579.90 L 767.40 554.10 L 718.90 524.90 Z" fill="#bfd6fe" fill-opacity="0.97" fill-rule="nonzero" group-id="3,14,56" id="路径_1518-2" node-id="123" stroke="none" target-height="55" target-width="97.20001" target-x="670.2" target-y="524.9"></path><path d="M 718.90 579.90 L 670.20 554.10 L 672.00 553.10 L 718.90 577.90 L 765.60 553.10 L 767.40 554.10 L 718.90 579.90 Z" fill="#ffffff" fill-opacity="0.3783" fill-rule="nonzero" group-id="3,14,57" id="减去_1-2" node-id="124" stroke="none" target-height="26.800049" target-width="97.20001" target-x="670.2" target-y="553.1"></path><path d="M 590.80 643.10 L 590.80 732.80 L 639.80 760.60 L 639.80 669.00 Z" fill="#1745fe" fill-opacity="0.4462" fill-rule="nonzero" group-id="3,15,58" id="路径_1512-3" node-id="126" stroke="none" target-height="117.5" target-width="49" target-x="590.8" target-y="643.1"></path><path d="M 687.00 643.10 L 639.60 668.90 L 639.60 759.60 L 687.00 732.40 Z" fill="#1745fe" fill-opacity="0.4462" fill-rule="nonzero" filter="url(#路径_1513-3)" group-id="3,15,59,71" id="路径_1513-6" node-id="128" stroke="none" target-height="116.5" target-width="47.400024" target-x="639.6" target-y="643.1"></path><path d="M 590.80 643.10 L 639.60 668.90 L 688.00 643.10 L 639.30 614.40 Z" fill="#1745fe" fill-opacity="0.4462" fill-rule="nonzero" group-id="3,15,60" id="路径_1514-3" node-id="129" stroke="none" target-height="54.5" target-width="97.20001" target-x="590.8" target-y="614.4"></path><path d="M 590.80 643.10 L 590.80 732.80 L 639.80 760.60 L 639.80 669.00 Z" fill="url(#linear-gradient-8)" fill-opacity="0.8924" fill-rule="nonzero" group-id="3,15,61" id="路径_1516-3" node-id="130" stroke="none" target-height="117.5" target-width="49" target-x="590.8" target-y="643.1"></path><path d="M 687.00 643.10 L 639.60 668.90 L 639.60 760.60 L 687.00 733.40 Z" fill="url(#linear-gradient-9)" fill-opacity="0.8051" fill-rule="nonzero" group-id="3,15,62" id="路径_1517-3" node-id="131" stroke="none" target-height="117.5" target-width="47.400024" target-x="639.6" target-y="643.1"></path><path d="M 590.80 643.10 L 639.60 668.90 L 688.00 643.10 L 639.60 613.90 Z" fill="#bfd6fd" fill-opacity="0.8924" fill-rule="nonzero" group-id="3,15,63" id="路径_1518-3" node-id="132" stroke="none" target-height="55" target-width="97.20001" target-x="590.8" target-y="613.9"></path><path d="M 639.60 668.90 L 590.80 643.10 L 592.60 642.10 L 639.60 666.90 L 686.20 642.10 L 688.00 643.10 L 639.60 668.90 Z" fill="#ffffff" fill-opacity="0.4171" fill-rule="nonzero" group-id="3,15,64" id="减去_1-3" node-id="133" stroke="none" target-height="26.800049" target-width="97.20001" target-x="590.8" target-y="642.1"></path><path d="M 303.00 308.70 L 299.50 307.00 L 297.90 306.80 L 296.10 307.10 L 293.60 308.20 L 191.30 367.60 L 186.70 370.80 L 183.40 374.70 L 181.40 379.40 L 181.00 384.40 L 181.00 509.20 L 181.50 511.90 L 182.20 513.30 L 183.50 514.60 L 196.00 524.10 L 206.50 382.30 L 313.10 314.80 Z" fill="url(#linear-gradient-10)" fill-rule="nonzero" group-id="4,16" id="路径_1529" node-id="135" stroke="none" target-height="217.29999" target-width="132.1" target-x="181" target-y="306.8"></path><path d="M 206.10 372.60 L 200.80 375.80 L 198.40 377.60 L 196.30 379.90 L 194.50 382.70 L 193.70 384.90 L 193.10 387.40 L 192.90 390.30 L 193.50 519.10 L 193.90 522.40 L 194.40 523.60 L 195.30 524.50 L 196.60 524.90 L 197.50 524.80 L 200.80 523.40 L 308.30 461.10 L 311.50 458.60 L 314.10 455.30 L 315.10 452.90 L 315.70 450.20 L 315.90 446.70 L 315.60 410.00 L 315.60 319.60 L 314.60 315.70 L 312.70 313.50 L 310.30 313.00 L 307.70 314.10 L 206.10 372.60 Z" fill="url(#linear-gradient-11)" fill-rule="nonzero" group-id="4,17" id="路径_1530" node-id="136" stroke="none" target-height="211.90002" target-width="123" target-x="192.9" target-y="313"></path><path d="M 247.70 374.90 L 249.30 371.30 L 250.20 370.30 L 252.10 369.40 L 253.00 369.50 L 254.20 370.10 L 259.10 375.60 L 259.90 376.00 L 260.80 376.00 L 267.50 374.20 L 269.20 374.10 L 270.80 374.60 L 272.60 375.60 L 273.10 376.30 L 273.30 378.10 L 271.80 381.70 L 265.20 390.50 L 264.80 392.90 L 265.20 402.60 L 264.60 404.50 L 262.80 407.20 L 261.30 408.50 L 259.30 409.70 L 255.90 410.50 L 252.50 410.70 L 250.20 411.90 L 247.30 415.30 L 242.40 422.60 L 241.30 423.40 L 240.20 423.40 L 239.10 423.00 L 238.20 422.10 L 237.60 420.90 L 237.30 419.50 L 237.30 406.80 L 231.30 401.30 L 230.60 399.50 L 230.70 398.30 L 232.10 395.70 L 233.50 394.30 L 240.80 388.50 L 242.40 387.00 L 243.30 385.60 L 244.60 382.70 L 247.70 374.90 Z" fill="#dee8ff" fill-rule="nonzero" group-id="4,18" id="路径_1531" node-id="137" stroke="none" target-height="54" target-width="42.69998" target-x="230.6" target-y="369.4"></path><path d="M 250.70 377.90 L 252.30 374.30 L 253.20 373.30 L 255.10 372.40 L 256.00 372.50 L 257.20 373.10 L 262.10 378.60 L 262.90 379.00 L 263.80 379.00 L 270.60 377.20 L 273.40 377.30 L 274.40 377.90 L 274.60 379.40 L 273.40 383.10 L 267.90 394.30 L 267.80 399.60 L 268.20 405.60 L 267.60 407.50 L 265.80 410.20 L 264.30 411.50 L 260.80 413.20 L 255.10 413.80 L 253.50 414.30 L 249.90 416.90 L 244.40 422.80 L 242.80 424.20 L 241.60 424.60 L 241.00 424.40 L 240.60 423.80 L 240.30 422.50 L 240.30 409.80 L 234.30 404.30 L 233.60 402.50 L 233.70 401.30 L 235.10 398.70 L 236.60 397.30 L 243.90 391.50 L 245.40 390.00 L 246.30 388.60 L 247.70 385.70 L 250.70 377.90 Z" fill="#fcffff" fill-rule="nonzero" group-id="4,19" id="路径_1532" node-id="138" stroke="none" target-height="52.200012" target-width="41" target-x="233.6" target-y="372.4"></path><path d="M 218.30 447.70 L 216.70 448.90 L 214.60 451.60 L 214.20 453.10 L 214.20 454.60 L 214.70 456.30 L 215.90 457.30 L 218.00 457.20 L 219.60 456.70 L 290.00 416.00 L 292.80 412.80 L 294.00 409.90 L 294.00 408.50 L 293.20 406.80 L 292.20 406.00 L 289.80 406.60 L 267.60 418.30 L 254.80 425.60 L 218.30 447.70 Z" fill="#dee8ff" fill-rule="nonzero" group-id="4,20,65" id="路径_1533" node-id="140" stroke="none" target-height="51.299988" target-width="79.8" target-x="214.2" target-y="406"></path><path d="M 219.40 449.70 L 217.80 450.90 L 215.70 453.60 L 215.20 455.10 L 215.20 456.60 L 215.80 458.30 L 216.90 459.30 L 219.10 459.20 L 220.60 458.70 L 291.10 418.00 L 293.90 414.80 L 295.00 411.90 L 295.10 410.50 L 294.20 408.80 L 293.30 408.00 L 290.90 408.60 L 268.70 420.30 L 255.90 427.60 L 219.40 449.70 Z" fill="#fcffff" fill-rule="nonzero" group-id="4,20,66" id="路径_1534" node-id="141" stroke="none" target-height="51.299988" target-width="79.90001" target-x="215.2" target-y="408"></path><path d="M 218.30 475.70 L 216.70 476.90 L 214.60 479.60 L 214.20 481.10 L 214.20 482.60 L 214.70 484.30 L 215.90 485.30 L 218.00 485.20 L 219.60 484.70 L 290.00 444.00 L 292.80 440.80 L 294.00 437.90 L 294.00 436.50 L 293.20 434.80 L 292.20 434.00 L 289.80 434.60 L 267.60 446.30 L 254.80 453.60 L 218.30 475.70 Z" fill="#dee8ff" fill-rule="nonzero" group-id="4,21,67" id="路径_1533-2" node-id="143" stroke="none" target-height="51.299988" target-width="79.8" target-x="214.2" target-y="434"></path><path d="M 219.40 477.70 L 217.80 478.90 L 215.70 481.60 L 215.20 483.10 L 215.20 484.60 L 215.80 486.30 L 216.90 487.30 L 219.10 487.20 L 220.60 486.70 L 291.10 446.00 L 293.90 442.80 L 295.00 439.90 L 295.10 438.50 L 294.20 436.80 L 293.30 436.00 L 290.90 436.60 L 268.70 448.30 L 255.90 455.60 L 219.40 477.70 Z" fill="#fcffff" fill-rule="nonzero" group-id="4,21,68" id="路径_1534-2" node-id="144" stroke="none" target-height="51.299988" target-width="79.90001" target-x="215.2" target-y="436"></path><path d="M 424.30 222.40 L 392.00 208.30 L 425.00 186.80 L 447.50 195.10 Z" fill="#dfe9ff" fill-rule="nonzero" group-id="5,22" id="路径_1537" node-id="146" stroke="none" target-height="35.59999" target-width="55.5" target-x="392" target-y="186.8"></path><path d="M 419.70 236.60 L 421.60 221.40 L 391.70 208.20 L 391.80 217.10 L 392.50 226.30 L 394.00 236.80 L 395.20 242.20 L 396.70 247.40 L 398.80 252.70 L 401.70 258.40 L 405.00 264.20 L 412.40 275.30 L 421.90 287.40 L 424.80 290.30 L 425.00 288.40 L 424.50 283.50 L 421.50 264.00 L 418.50 260.10 L 416.60 256.80 L 414.90 253.00 L 413.40 248.00 L 411.80 240.40 L 410.60 232.80 Z" fill="#b2c5f2" fill-rule="nonzero" group-id="5,23" id="路径_1538" node-id="147" stroke="none" target-height="82.09999" target-width="33.299988" target-x="391.7" target-y="208.2"></path><path d="M 656.40 486.90 L 655.70 491.40 L 654.30 495.70 L 652.40 499.80 L 649.70 503.90 L 646.70 507.60 L 643.10 511.10 L 638.90 514.50 L 634.10 517.80 L 623.60 523.30 L 617.70 525.70 L 611.10 527.90 L 597.70 531.20 L 590.40 532.40 L 575.10 533.80 L 567.10 534.00 L 550.50 533.30 L 534.00 531.10 L 518.80 527.70 L 504.40 523.00 L 491.70 517.40 L 485.70 514.10 L 480.20 510.70 L 475.30 507.20 L 470.90 503.60 L 466.70 499.50 L 463.20 495.40 L 460.20 491.30 L 457.90 487.10 L 456.00 482.70 L 454.80 478.20 L 454.20 473.70 L 454.20 469.20 L 455.00 464.70 L 456.30 460.40 L 458.30 456.20 L 460.90 452.20 L 464.00 448.50 L 467.60 444.90 L 471.80 441.50 L 476.60 438.30 L 481.60 435.40 L 487.00 432.80 L 493.00 430.40 L 499.50 428.20 L 512.90 424.90 L 520.20 423.70 L 535.60 422.20 L 543.50 422.00 L 560.20 422.80 L 576.70 424.90 L 584.40 426.50 L 599.30 430.60 L 606.30 433.10 L 618.90 438.60 L 625.00 441.90 L 630.40 445.30 L 635.40 448.90 L 639.80 452.50 L 644.00 456.60 L 647.50 460.70 L 650.40 464.80 L 652.80 468.90 L 654.70 473.40 L 655.90 477.80 L 656.50 482.30 L 656.40 486.90 Z" fill="url(#linear-gradient-12)" fill-rule="nonzero" group-id="5,24" id="椭圆_668" node-id="148" stroke="none" target-height="112" target-width="202.29999" target-x="454.2" target-y="422"></path><path d="M 649.50 481.70 L 648.80 485.80 L 647.60 489.70 L 645.70 493.50 L 643.30 497.20 L 640.50 500.50 L 637.10 503.80 L 633.20 506.90 L 628.70 509.80 L 619.00 514.80 L 607.30 518.90 L 599.10 521.00 L 590.30 522.70 L 580.80 523.80 L 571.20 524.40 L 561.20 524.40 L 550.80 523.80 L 540.40 522.50 L 530.50 520.80 L 521.20 518.60 L 512.00 515.80 L 503.60 512.70 L 495.90 509.20 L 490.30 506.20 L 485.20 503.10 L 476.50 496.50 L 472.50 492.80 L 469.20 489.10 L 466.50 485.30 L 464.30 481.50 L 462.50 477.50 L 461.40 473.40 L 460.80 469.40 L 460.80 465.20 L 461.50 461.20 L 462.80 457.20 L 464.60 453.40 L 467.00 449.80 L 469.90 446.40 L 473.20 443.20 L 477.10 440.10 L 481.60 437.10 L 491.30 432.20 L 503.00 428.00 L 511.20 425.90 L 520.00 424.30 L 529.50 423.10 L 539.10 422.60 L 549.10 422.60 L 559.60 423.20 L 570.00 424.40 L 579.80 426.10 L 589.10 428.30 L 598.30 431.10 L 606.70 434.30 L 614.40 437.70 L 625.20 443.90 L 633.90 450.40 L 637.80 454.10 L 641.10 457.80 L 643.90 461.60 L 646.10 465.40 L 647.80 469.50 L 649.00 473.50 L 649.50 477.60 L 649.50 481.70 Z" fill="url(#linear-gradient-13)" fill-rule="nonzero" group-id="5,25" id="椭圆_669" node-id="149" stroke="none" target-height="101.80002" target-width="188.70001" target-x="460.8" target-y="422.6"></path><path d="M 648.60 480.10 L 647.90 484.20 L 646.70 488.20 L 644.90 492.00 L 642.50 495.80 L 639.70 499.20 L 636.40 502.40 L 632.50 505.60 L 628.10 508.60 L 618.50 513.60 L 607.00 517.80 L 598.90 519.90 L 590.20 521.60 L 580.80 522.80 L 571.40 523.40 L 561.50 523.40 L 551.20 522.80 L 540.90 521.60 L 531.20 519.90 L 522.00 517.60 L 513.00 514.90 L 504.70 511.70 L 497.10 508.20 L 491.50 505.20 L 486.50 502.00 L 477.90 495.40 L 474.10 491.70 L 470.80 488.00 L 468.10 484.20 L 466.00 480.30 L 464.20 476.30 L 463.10 472.20 L 462.60 468.10 L 462.60 463.90 L 463.30 459.80 L 464.50 455.80 L 466.30 452.00 L 468.80 448.20 L 471.60 444.80 L 474.90 441.60 L 478.70 438.50 L 483.20 435.40 L 492.80 430.40 L 504.30 426.20 L 512.30 424.10 L 521.00 422.40 L 530.40 421.20 L 539.90 420.60 L 549.70 420.60 L 560.10 421.20 L 570.30 422.40 L 580.00 424.10 L 589.20 426.40 L 598.30 429.20 L 606.50 432.30 L 614.10 435.80 L 624.70 442.00 L 633.30 448.60 L 637.20 452.30 L 640.40 456.00 L 643.10 459.80 L 645.30 463.70 L 647.00 467.80 L 648.10 471.80 L 648.70 476.00 L 648.60 480.10 Z" fill="url(#linear-gradient-14)" fill-rule="nonzero" group-id="5,26" id="椭圆_670" node-id="150" stroke="none" target-height="102.80002" target-width="186.1" target-x="462.6" target-y="420.6"></path><path d="M 632.00 471.70 L 631.50 475.00 L 630.40 478.30 L 628.90 481.50 L 626.90 484.50 L 624.60 487.30 L 618.60 492.60 L 615.00 495.10 L 609.80 497.90 L 604.00 500.40 L 597.40 502.70 L 590.70 504.40 L 583.50 505.80 L 575.70 506.70 L 567.90 507.20 L 559.70 507.20 L 551.10 506.70 L 542.60 505.70 L 534.50 504.30 L 526.90 502.50 L 519.40 500.20 L 512.50 497.60 L 506.20 494.70 L 500.10 491.30 L 494.80 487.80 L 490.30 484.20 L 487.10 481.10 L 482.10 474.90 L 480.30 471.70 L 478.90 468.40 L 477.90 465.00 L 477.50 461.60 L 477.50 458.20 L 478.10 454.80 L 479.10 451.50 L 480.60 448.40 L 482.60 445.30 L 484.90 442.50 L 490.90 437.20 L 494.60 434.80 L 499.70 431.90 L 505.50 429.40 L 512.10 427.20 L 518.80 425.40 L 526.00 424.00 L 533.80 423.10 L 541.70 422.60 L 549.90 422.60 L 558.40 423.10 L 567.00 424.10 L 575.00 425.50 L 582.70 427.30 L 590.20 429.60 L 597.00 432.20 L 603.30 435.10 L 609.40 438.50 L 614.70 442.00 L 619.30 445.60 L 622.50 448.70 L 627.40 454.90 L 629.20 458.10 L 630.70 461.50 L 631.60 464.80 L 632.10 468.20 L 632.00 471.70 Z" fill="url(#linear-gradient-15)" fill-rule="nonzero" group-id="5,27" id="椭圆_671" node-id="151" stroke="none" target-height="84.600006" target-width="154.59998" target-x="477.5" target-y="422.6"></path><path d="M 509.40 427.00 L 500.90 437.10 L 498.30 442.00 L 497.30 446.60 L 497.30 448.90 L 497.80 451.50 L 498.80 454.40 L 500.20 457.10 L 502.20 460.10 L 505.20 463.50 L 509.20 467.20 L 513.40 470.50 L 517.90 473.20 L 522.60 475.60 L 527.50 477.60 L 532.60 479.20 L 543.00 481.40 L 556.00 482.50 L 563.60 482.50 L 571.00 482.10 L 577.70 481.40 L 583.10 480.30 L 588.10 478.90 L 592.60 477.20 L 597.00 475.00 L 600.80 472.70 L 604.00 470.20 L 607.10 467.40 L 609.50 464.60 L 611.30 462.00 L 612.70 459.10 L 613.50 456.60 L 613.70 454.30 L 613.20 451.00 L 612.40 448.40 L 609.90 444.30 L 606.40 440.60 L 606.00 439.90 L 605.90 439.00 L 608.00 431.70 L 613.50 417.40 L 612.40 416.00 L 607.00 414.20 L 594.60 412.30 L 569.10 410.40 L 532.70 409.20 L 503.30 408.80 L 506.20 413.60 L 509.30 420.60 L 509.80 422.90 L 509.90 425.20 L 509.40 427.00 Z" fill="#779cff" fill-rule="nonzero" group-id="5,28" id="路径_1535" node-id="152" stroke="none" target-height="73.70001" target-width="116.400024" target-x="497.3" target-y="408.8"></path><path d="M 419.00 238.00 L 419.30 250.40 L 421.00 271.40 L 423.40 288.60 L 427.30 306.50 L 429.80 315.20 L 433.80 326.60 L 438.10 337.50 L 442.80 347.80 L 447.90 358.00 L 453.30 367.30 L 458.80 375.80 L 463.40 382.00 L 468.00 387.50 L 472.60 392.30 L 477.20 396.60 L 484.50 402.80 L 492.40 408.70 L 503.80 416.10 L 510.10 419.50 L 516.50 422.50 L 523.50 425.20 L 531.20 427.70 L 538.90 429.60 L 547.40 431.10 L 556.80 432.20 L 566.30 432.60 L 575.40 432.50 L 584.00 431.80 L 592.70 430.70 L 600.80 429.20 L 608.40 427.30 L 616.00 425.00 L 629.20 420.00 L 640.70 414.20 L 645.40 411.30 L 651.00 407.30 L 657.90 401.80 L 664.80 395.50 L 672.30 388.20 L 679.70 380.40 L 687.00 372.00 L 693.80 363.40 L 700.00 354.90 L 706.90 343.40 L 709.60 338.20 L 712.50 331.20 L 718.00 315.70 L 724.60 292.20 L 730.60 266.30 Z" fill="url(#linear-gradient-16)" fill-rule="nonzero" group-id="5,29" id="路径_1536" node-id="153" stroke="none" target-height="194.6" target-width="311.59998" target-x="419" target-y="238"></path><path d="M 731.20 260.80 L 730.50 265.50 L 729.40 270.00 L 727.90 274.30 L 726.00 278.60 L 723.60 282.90 L 720.20 287.80 L 716.20 292.60 L 711.50 297.20 L 706.10 301.70 L 700.50 305.70 L 694.40 309.60 L 687.60 313.30 L 680.20 316.70 L 672.80 319.70 L 664.80 322.50 L 656.40 325.00 L 647.50 327.20 L 629.20 330.50 L 609.40 332.50 L 599.40 332.90 L 578.50 332.60 L 567.70 331.90 L 556.80 330.70 L 536.20 327.40 L 526.40 325.20 L 507.30 319.80 L 489.90 313.40 L 481.50 309.70 L 473.60 305.70 L 466.30 301.70 L 459.50 297.40 L 452.80 292.70 L 446.80 287.90 L 441.40 283.10 L 436.60 278.10 L 432.10 272.80 L 428.30 267.40 L 425.10 262.00 L 422.60 256.50 L 421.00 251.90 L 419.80 247.40 L 419.10 242.80 L 418.80 238.20 L 419.00 233.50 L 419.60 228.90 L 420.70 224.40 L 422.20 220.00 L 424.20 215.70 L 426.50 211.50 L 430.00 206.60 L 434.00 201.80 L 438.70 197.20 L 444.00 192.70 L 449.60 188.60 L 455.80 184.80 L 462.60 181.10 L 470.00 177.60 L 477.40 174.60 L 485.30 171.90 L 493.70 169.40 L 502.70 167.20 L 520.90 163.90 L 540.70 161.90 L 550.80 161.50 L 571.60 161.80 L 582.50 162.50 L 593.30 163.70 L 613.90 167.00 L 623.70 169.20 L 642.90 174.50 L 660.20 181.00 L 668.70 184.70 L 676.60 188.60 L 683.90 192.70 L 690.70 197.00 L 697.40 201.70 L 703.40 206.40 L 708.80 211.30 L 713.60 216.20 L 718.10 221.60 L 721.90 227.00 L 725.00 232.40 L 727.50 237.80 L 729.20 242.40 L 730.30 247.00 L 731.00 251.60 L 731.30 256.20 L 731.20 260.80 Z" fill="url(#linear-gradient-17)" fill-rule="nonzero" group-id="5,30" id="椭圆_672" node-id="154" stroke="none" target-height="171.4" target-width="312.5" target-x="418.8" target-y="161.5"></path><path d="M 717.30 259.10 L 716.50 264.30 L 715.10 269.30 L 713.10 274.20 L 710.40 278.90 L 707.30 283.40 L 703.60 287.70 L 699.40 291.80 L 694.50 295.90 L 689.40 299.50 L 683.80 303.00 L 677.60 306.30 L 670.90 309.40 L 656.90 314.50 L 649.30 316.80 L 641.10 318.80 L 624.50 321.70 L 606.50 323.50 L 597.30 323.90 L 578.30 323.60 L 568.50 322.90 L 549.10 320.50 L 539.80 318.80 L 522.00 314.50 L 513.40 312.00 L 497.60 306.20 L 489.90 302.80 L 476.10 295.60 L 463.80 287.50 L 458.30 283.20 L 453.40 278.90 L 449.00 274.40 L 444.90 269.60 L 441.50 264.70 L 438.60 259.80 L 436.30 255.00 L 434.50 249.80 L 433.40 244.70 L 432.90 239.50 L 433.00 234.20 L 433.80 229.10 L 435.20 224.10 L 437.20 219.20 L 439.80 214.40 L 442.90 210.00 L 446.60 205.70 L 450.90 201.50 L 455.80 197.50 L 460.90 193.90 L 466.50 190.40 L 472.60 187.10 L 486.10 181.30 L 501.00 176.60 L 509.10 174.60 L 525.70 171.70 L 543.80 169.90 L 552.90 169.50 L 571.90 169.80 L 581.80 170.50 L 591.60 171.50 L 610.40 174.50 L 619.30 176.50 L 636.80 181.40 L 652.60 187.20 L 660.30 190.50 L 667.50 194.10 L 680.30 201.60 L 686.40 205.80 L 691.90 210.10 L 696.80 214.50 L 701.20 219.00 L 705.30 223.80 L 708.80 228.70 L 711.70 233.50 L 713.90 238.40 L 715.70 243.60 L 716.90 248.70 L 717.40 253.90 L 717.30 259.10 Z" fill="url(#linear-gradient-18)" fill-rule="nonzero" group-id="5,31" id="椭圆_673" node-id="155" stroke="none" target-height="154.4" target-width="284.50003" target-x="432.9" target-y="169.5"></path><path d="M 711.40 309.60 L 682.50 334.20 L 745.90 356.40 L 777.40 331.70 Z" fill="#dae3ff" fill-rule="nonzero" group-id="5,32" id="路径_1539" node-id="156" stroke="none" target-height="46.799988" target-width="94.900024" target-x="682.5" target-y="309.6"></path><path d="M 651.90 384.90 L 627.80 389.90 L 636.90 396.10 L 682.60 396.10 L 711.10 386.50 L 710.50 384.00 L 693.70 387.10 L 681.90 388.10 L 676.10 388.10 L 663.20 386.90 L 651.90 384.90 Z" fill="#8bafff" fill-rule="nonzero" group-id="5,33" id="路径_1542" node-id="157" stroke="none" target-height="12.100006" target-width="83.29999" target-x="627.8" target-y="384"></path><path d="M 708.20 403.60 L 722.20 398.20 L 732.70 393.10 L 743.50 386.50 L 751.50 379.90 L 756.70 374.00 L 764.10 362.30 L 770.00 350.90 L 774.40 341.00 L 778.10 331.40 L 745.40 356.50 L 745.20 361.80 L 743.50 369.70 L 741.60 374.40 L 738.00 380.50 L 735.40 383.60 L 731.00 388.00 L 726.40 391.80 L 717.60 398.10 L 708.20 403.60 Z" fill="#8cb4fe" fill-rule="nonzero" group-id="5,34" id="路径_1540" node-id="158" stroke="none" target-height="72.20001" target-width="69.89996" target-x="708.2" target-y="331.4"></path><path d="M 682.50 334.20 L 682.50 349.30 L 727.10 367.10 L 726.10 370.10 L 723.00 374.80 L 720.30 377.60 L 715.50 381.10 L 707.10 385.50 L 696.20 389.80 L 685.50 392.30 L 675.10 393.50 L 666.60 393.80 L 656.10 393.50 L 642.10 392.50 L 633.80 391.60 L 629.80 390.90 L 628.40 390.20 L 626.60 401.30 L 638.30 404.20 L 649.90 406.50 L 662.70 408.30 L 669.10 408.80 L 674.80 408.80 L 688.40 407.50 L 701.00 405.30 L 711.30 402.40 L 715.50 400.50 L 718.40 398.80 L 724.80 393.90 L 732.40 387.00 L 736.10 383.00 L 739.40 378.70 L 741.20 375.60 L 743.70 369.40 L 745.60 359.30 L 745.50 356.80 L 745.10 356.10 Z" fill="url(#linear-gradient-19)" fill-rule="nonzero" group-id="5,35" id="路径_1541" node-id="159" stroke="none" target-height="74.599976" target-width="119" target-x="626.6" target-y="334.2"></path></g></svg>